<?xml version="1.0" standalone="no"?>
<!DOCTYPE svg PUBLIC "-//W3C//DTD SVG 20010904//EN"
 "http://www.w3.org/TR/2001/REC-SVG-20010904/DTD/svg10.dtd">
<svg version="1.0" xmlns="http://www.w3.org/2000/svg"
 width="1880.000000pt" height="1191.000000pt" viewBox="0 0 1880.000000 1191.000000"
 preserveAspectRatio="xMidYMid meet">

<g transform="translate(0.000000,1191.000000) scale(0.100000,-0.100000)"
fill="#000000" stroke="none">
<path d="M0 11883 c1 -24 2 -25 11 -11 5 10 17 22 27 27 14 9 13 10 -10 11
-24 0 -28 -4 -28 -27z"/>
<path d="M18760 11903 c8 -3 21 -10 28 -16 8 -7 12 -5 12 7 0 11 -8 16 -27 15
-16 0 -22 -3 -13 -6z"/>
<path d="M100 11370 l0 -440 445 0 445 0 0 440 0 440 -445 0 -445 0 0 -440z"/>
<path d="M1090 11370 l0 -440 8315 0 8315 0 0 440 0 440 -8315 0 -8315 0 0
-440z"/>
<path d="M17820 11370 l0 -440 440 0 440 0 0 440 0 440 -440 0 -440 0 0 -440z"/>
<path d="M100 5955 l0 -4875 445 0 445 0 0 4875 0 4875 -445 0 -445 0 0 -4875z"/>
<path d="M17820 5955 l0 -4875 440 0 440 0 0 4875 0 4875 -440 0 -440 0 0
-4875z"/>
<path d="M1570 10090 l0 -190 50 0 50 0 0 135 0 135 140 0 140 0 0 55 0 55
-190 0 -190 0 0 -190z"/>
<path d="M2040 10225 l0 -55 130 0 130 0 0 -135 0 -135 55 0 55 0 0 190 0 190
-185 0 -185 0 0 -55z"/>
<path d="M1935 10061 c-48 -12 -100 -52 -131 -100 -40 -63 -40 -149 1 -213 87
-138 273 -138 360 0 41 64 41 150 0 214 -49 77 -147 120 -230 99z"/>
<path d="M1570 9625 l0 -185 190 0 190 0 0 50 0 50 -140 0 -140 0 0 135 0 135
-50 0 -50 0 0 -185z"/>
<path d="M2300 9675 l0 -135 -130 0 -130 0 0 -50 0 -50 185 0 185 0 0 185 0
185 -55 0 -55 0 0 -135z"/>
<path d="M1910 9251 c-193 -42 -347 -269 -309 -452 15 -72 75 -185 123 -232
21 -20 68 -52 105 -69 61 -29 74 -32 166 -32 92 0 105 3 166 32 85 41 135 90
180 177 49 94 63 160 48 239 -22 127 -126 264 -235 312 -61 27 -180 39 -244
25z m204 -111 c60 -28 128 -97 157 -157 19 -38 24 -65 24 -128 0 -96 -23 -152
-91 -219 -67 -68 -123 -91 -219 -91 -96 0 -152 23 -219 91 -110 110 -126 264
-40 390 39 58 107 110 168 130 58 20 163 12 220 -16z"/>
<path d="M1935 9061 c-48 -12 -100 -52 -131 -100 -40 -63 -40 -149 1 -213 87
-138 273 -138 360 0 41 64 41 150 0 214 -49 77 -147 120 -230 99z"/>
<path d="M16810 9251 c-193 -42 -347 -269 -309 -452 15 -72 75 -185 123 -232
21 -20 68 -52 105 -69 61 -29 74 -32 166 -32 92 0 105 3 166 32 85 41 135 90
180 177 49 94 63 160 48 239 -22 127 -126 264 -235 312 -61 27 -180 39 -244
25z m204 -111 c60 -28 128 -97 157 -157 19 -38 24 -65 24 -128 0 -96 -23 -152
-91 -219 -67 -68 -123 -91 -219 -91 -96 0 -152 23 -219 91 -110 110 -126 264
-40 390 39 58 107 110 168 130 58 20 163 12 220 -16z"/>
<path d="M16835 9061 c-48 -12 -100 -52 -131 -100 -40 -63 -40 -149 1 -213 87
-138 273 -138 360 0 24 37 29 56 29 107 0 51 -5 70 -29 107 -49 77 -147 120
-230 99z"/>
<path d="M1910 8251 c-193 -42 -347 -269 -309 -452 15 -72 75 -185 123 -232
21 -20 68 -52 105 -69 61 -29 74 -32 166 -32 92 0 105 3 166 32 85 41 135 90
180 177 49 94 63 160 48 239 -22 127 -126 264 -235 312 -61 27 -180 39 -244
25z m204 -111 c60 -28 128 -97 157 -157 19 -38 24 -65 24 -128 0 -96 -23 -152
-91 -219 -67 -68 -123 -91 -219 -91 -96 0 -152 23 -219 91 -110 110 -126 264
-40 390 39 58 107 110 168 130 58 20 163 12 220 -16z"/>
<path d="M1935 8061 c-48 -12 -100 -52 -131 -100 -40 -63 -40 -149 1 -213 87
-138 273 -138 360 0 41 64 41 150 0 214 -49 77 -147 120 -230 99z"/>
<path d="M16810 8251 c-193 -42 -347 -269 -309 -452 15 -72 75 -185 123 -232
21 -20 68 -52 105 -69 61 -29 74 -32 166 -32 92 0 105 3 166 32 85 41 135 90
180 177 49 94 63 160 48 239 -22 127 -126 264 -235 312 -61 27 -180 39 -244
25z m204 -111 c60 -28 128 -97 157 -157 19 -38 24 -65 24 -128 0 -96 -23 -152
-91 -219 -67 -68 -123 -91 -219 -91 -96 0 -152 23 -219 91 -110 110 -126 264
-40 390 39 58 107 110 168 130 58 20 163 12 220 -16z"/>
<path d="M16835 8061 c-48 -12 -100 -52 -131 -100 -40 -63 -40 -149 1 -213 87
-138 273 -138 360 0 24 37 29 56 29 107 0 51 -5 70 -29 107 -49 77 -147 120
-230 99z"/>
<path d="M5367 7388 c-102 -35 -199 -148 -222 -255 l-7 -33 50 0 50 0 26 54
c33 68 64 99 132 132 l54 26 0 49 c0 56 0 56 -83 27z"/>
<path d="M5540 7358 l1 -53 48 -23 c62 -29 94 -61 127 -128 l26 -54 55 0 55 0
-7 32 c-25 113 -120 221 -226 257 -35 11 -67 21 -71 21 -4 0 -8 -24 -8 -52z"/>
<path d="M1910 7251 c-193 -42 -347 -269 -309 -452 15 -72 75 -185 123 -232
21 -20 68 -52 105 -69 61 -29 74 -32 166 -32 92 0 105 3 166 32 85 41 135 90
180 177 49 94 63 160 48 239 -22 127 -126 264 -235 312 -61 27 -180 39 -244
25z m204 -111 c60 -28 128 -97 157 -157 19 -38 24 -65 24 -128 0 -96 -23 -152
-91 -219 -67 -68 -123 -91 -219 -91 -96 0 -152 23 -219 91 -110 110 -126 264
-40 390 39 58 107 110 168 130 58 20 163 12 220 -16z"/>
<path d="M1935 7061 c-48 -12 -100 -52 -131 -100 -40 -63 -40 -149 1 -213 87
-138 273 -138 360 0 41 64 41 150 0 214 -49 77 -147 120 -230 99z"/>
<path d="M16810 7251 c-193 -42 -347 -269 -309 -452 15 -72 75 -185 123 -232
21 -20 68 -52 105 -69 61 -29 74 -32 166 -32 92 0 105 3 166 32 85 41 135 90
180 177 49 94 63 160 48 239 -22 127 -126 264 -235 312 -61 27 -180 39 -244
25z m204 -111 c60 -28 128 -97 157 -157 19 -38 24 -65 24 -128 0 -96 -23 -152
-91 -219 -67 -68 -123 -91 -219 -91 -96 0 -152 23 -219 91 -110 110 -126 264
-40 390 39 58 107 110 168 130 58 20 163 12 220 -16z"/>
<path d="M16835 7061 c-48 -12 -100 -52 -131 -100 -40 -63 -40 -149 1 -213 87
-138 273 -138 360 0 24 37 29 56 29 107 0 51 -5 70 -29 107 -49 77 -147 120
-230 99z"/>
<path d="M5452 7193 c-13 -2 -38 -19 -56 -38 -57 -56 -57 -133 -1 -190 36 -35
78 -48 126 -38 41 8 94 62 102 103 21 100 -68 184 -171 163z"/>
<path d="M5145 6983 c14 -58 55 -133 94 -172 46 -46 147 -101 186 -101 23 0
25 3 25 49 l0 49 -54 26 c-67 33 -99 65 -128 127 l-23 48 -54 1 c-53 0 -53 0
-46 -27z"/>
<path d="M5712 6961 c-28 -61 -62 -95 -123 -123 l-48 -23 -1 -52 c0 -50 1 -53
25 -53 39 0 141 56 185 101 39 40 81 117 94 172 l6 27 -57 0 -58 -1 -23 -48z"/>
<path d="M16810 6251 c-193 -42 -347 -269 -309 -452 15 -72 75 -185 123 -232
21 -20 68 -52 105 -69 61 -29 74 -32 166 -32 92 0 105 3 166 32 85 41 135 90
180 177 49 94 63 160 48 239 -22 127 -126 264 -235 312 -61 27 -180 39 -244
25z m204 -111 c60 -28 128 -97 157 -157 19 -38 24 -65 24 -128 0 -96 -23 -152
-91 -219 -67 -68 -123 -91 -219 -91 -96 0 -152 23 -219 91 -110 110 -126 264
-40 390 39 58 107 110 168 130 58 20 163 12 220 -16z"/>
<path d="M16835 6061 c-48 -12 -100 -52 -131 -100 -40 -63 -40 -149 1 -213 87
-138 273 -138 360 0 24 37 29 56 29 107 0 51 -5 70 -29 107 -49 77 -147 120
-230 99z"/>
<path d="M1570 5090 l0 -190 50 0 50 0 0 135 0 135 140 0 140 0 0 55 0 55
-190 0 -190 0 0 -190z"/>
<path d="M2040 5225 l0 -55 130 0 130 0 0 -135 0 -135 55 0 55 0 0 190 0 190
-185 0 -185 0 0 -55z"/>
<path d="M16760 5260 c-75 -27 -155 -85 -191 -137 -37 -54 -75 -138 -85 -187
l-6 -37 47 3 c47 3 48 4 60 44 27 92 129 189 223 214 l42 11 0 54 c0 64 -4 65
-90 35z"/>
<path d="M16940 5222 c0 -59 0 -60 33 -66 82 -16 200 -138 214 -219 l6 -37 59
0 59 0 -7 38 c-11 64 -73 182 -121 228 -48 47 -144 98 -205 109 l-38 7 0 -60z"/>
<path d="M1935 5061 c-48 -12 -100 -52 -131 -100 -40 -63 -40 -149 1 -213 87
-138 273 -138 360 0 41 64 41 150 0 214 -49 77 -147 120 -230 99z"/>
<path d="M16835 5061 c-48 -12 -100 -52 -131 -100 -23 -36 -28 -55 -28 -106 0
-77 35 -138 102 -180 96 -61 223 -28 287 73 24 37 29 56 29 107 0 51 -5 70
-29 107 -49 77 -147 120 -230 99z"/>
<path d="M1570 4625 l0 -185 190 0 190 0 0 50 0 50 -140 0 -140 0 0 135 0 135
-50 0 -50 0 0 -185z"/>
<path d="M2300 4675 l0 -135 -130 0 -130 0 0 -50 0 -50 185 0 185 0 0 185 0
185 -55 0 -55 0 0 -135z"/>
<path d="M16485 4778 c18 -82 59 -162 111 -214 55 -55 150 -106 217 -118 l38
-7 -3 52 -3 52 -46 11 c-90 23 -187 118 -214 210 -12 40 -13 41 -59 44 l-48 3
7 -33z"/>
<path d="M17187 4773 c-14 -81 -132 -203 -214 -219 -32 -6 -33 -8 -33 -61 l0
-54 38 7 c160 30 290 161 327 332 l7 32 -60 0 -59 0 -6 -37z"/>
<path d="M1910 4251 c-193 -42 -347 -269 -309 -452 15 -72 75 -185 123 -232
21 -20 68 -52 105 -69 61 -29 74 -32 166 -32 92 0 105 3 166 32 85 41 135 90
180 177 49 94 63 160 48 239 -22 127 -126 264 -235 312 -61 27 -180 39 -244
25z m204 -111 c60 -28 128 -97 157 -157 19 -38 24 -65 24 -128 0 -96 -23 -152
-91 -219 -67 -68 -123 -91 -219 -91 -96 0 -152 23 -219 91 -110 110 -126 264
-40 390 39 58 107 110 168 130 58 20 163 12 220 -16z"/>
<path d="M1935 4061 c-48 -12 -100 -52 -131 -100 -40 -63 -40 -149 1 -213 87
-138 273 -138 360 0 41 64 41 150 0 214 -49 77 -147 120 -230 99z"/>
<path d="M16500 3860 l0 -400 395 0 395 0 0 400 0 400 -395 0 -395 0 0 -400z
m700 -5 l0 -315 -315 0 -315 0 0 315 0 315 315 0 315 0 0 -315z"/>
<path d="M16835 4061 c-48 -12 -100 -52 -131 -100 -23 -36 -28 -55 -28 -106 0
-77 35 -138 102 -180 96 -61 223 -28 287 73 24 37 29 56 29 107 0 51 -5 70
-29 107 -49 77 -147 120 -230 99z"/>
<path d="M1910 3251 c-193 -42 -347 -269 -309 -452 15 -72 75 -185 123 -232
21 -20 68 -52 105 -69 61 -29 74 -32 166 -32 92 0 105 3 166 32 85 41 135 90
180 177 49 94 63 160 48 239 -22 127 -126 264 -235 312 -61 27 -180 39 -244
25z m204 -111 c60 -28 128 -97 157 -157 19 -38 24 -65 24 -128 0 -96 -23 -152
-91 -219 -67 -68 -123 -91 -219 -91 -96 0 -152 23 -219 91 -110 110 -126 264
-40 390 39 58 107 110 168 130 58 20 163 12 220 -16z"/>
<path d="M1935 3061 c-48 -12 -100 -52 -131 -100 -40 -63 -40 -149 1 -213 87
-138 273 -138 360 0 41 64 41 150 0 214 -49 77 -147 120 -230 99z"/>
<path d="M1910 2251 c-193 -42 -347 -269 -309 -452 15 -72 75 -185 123 -232
21 -20 68 -52 105 -69 61 -29 74 -32 166 -32 92 0 105 3 166 32 85 41 135 90
180 177 49 94 63 160 48 239 -22 127 -126 264 -235 312 -61 27 -180 39 -244
25z m204 -111 c60 -28 128 -97 157 -157 19 -38 24 -65 24 -128 0 -96 -23 -152
-91 -219 -67 -68 -123 -91 -219 -91 -96 0 -152 23 -219 91 -110 110 -126 264
-40 390 39 58 107 110 168 130 58 20 163 12 220 -16z"/>
<path d="M1935 2061 c-48 -12 -100 -52 -131 -100 -40 -63 -40 -149 1 -213 87
-138 273 -138 360 0 41 64 41 150 0 214 -49 77 -147 120 -230 99z"/>
<path d="M100 540 l0 -440 445 0 445 0 0 440 0 440 -445 0 -445 0 0 -440z"/>
<path d="M1090 540 l0 -440 8315 0 8315 0 0 440 0 440 -8315 0 -8315 0 0 -440z"/>
<path d="M17820 540 l0 -440 440 0 440 0 0 440 0 440 -440 0 -440 0 0 -440z"/>
<path d="M0 22 c0 -14 6 -22 16 -22 14 0 15 3 3 18 -7 9 -15 19 -16 21 -2 2
-3 -5 -3 -17z"/>
<path d="M18785 10 c-3 -5 -1 -10 4 -10 6 0 11 5 11 10 0 6 -2 10 -4 10 -3 0
-8 -4 -11 -10z"/>
</g>
</svg>
