<?xml version="1.0" standalone="no"?>
<!DOCTYPE svg PUBLIC "-//W3C//DTD SVG 20010904//EN"
 "http://www.w3.org/TR/2001/REC-SVG-20010904/DTD/svg10.dtd">
<svg version="1.0" xmlns="http://www.w3.org/2000/svg"
 width="1978.000000pt" height="1191.000000pt" viewBox="0 0 1978.000000 1191.000000"
 preserveAspectRatio="xMidYMid meet">

<g transform="translate(0.000000,1191.000000) scale(0.100000,-0.100000)"
fill="#000000" stroke="none">
<path d="M0 5955 l0 -5955 21 0 c19 0 19 1 5 16 -15 14 -16 567 -16 5934 0
5367 1 5920 16 5934 14 15 925 16 9869 16 8944 0 9855 -1 9869 -16 15 -14 16
-14 16 5 l0 21 -9890 0 -9890 0 0 -5955z"/>
<path d="M100 11365 l0 -445 445 0 445 0 0 445 0 445 -445 0 -445 0 0 -445z"/>
<path d="M1080 11365 l0 -445 8815 0 8815 0 0 445 0 445 -8815 0 -8815 0 0
-445z"/>
<path d="M18800 11365 l0 -445 445 0 445 0 0 445 0 445 -445 0 -445 0 0 -445z"/>
<path d="M100 5950 l0 -4880 445 0 445 0 0 4880 0 4880 -445 0 -445 0 0 -4880z"/>
<path d="M1080 5950 l0 -4880 470 0 470 0 0 4880 0 4880 -470 0 -470 0 0
-4880z"/>
<path d="M18800 5950 l0 -4880 445 0 445 0 0 4880 0 4880 -445 0 -445 0 0
-4880z"/>
<path d="M13420 10300 l0 -430 635 0 635 0 0 430 0 430 -635 0 -635 0 0 -430z
m1180 0 l0 -350 -550 0 -550 0 0 350 0 350 550 0 550 0 0 -350z"/>
<path d="M15120 10300 l0 -430 635 0 635 0 0 430 0 430 -635 0 -635 0 0 -430z
m1180 0 l0 -350 -550 0 -550 0 0 350 0 350 550 0 550 0 0 -350z"/>
<path d="M11550 10085 l0 -205 173 0 172 0 353 -353 352 -352 0 -80 0 -80 -46
-25 c-26 -13 -58 -41 -73 -64 l-26 -40 -1 -237 c-1 -131 -4 -245 -7 -253 -5
-12 -22 -16 -71 -16 -57 0 -65 2 -71 21 -4 12 -8 125 -9 253 -1 222 -2 232
-24 268 -13 20 -40 47 -60 60 -34 21 -48 23 -192 23 -144 0 -158 -2 -192 -23
-20 -13 -47 -40 -60 -60 -22 -35 -23 -49 -26 -238 -4 -235 2 -268 59 -325 37
-37 39 -42 39 -99 l0 -60 -370 0 c-341 0 -370 1 -379 17 -7 14 -3 26 16 52 34
44 53 110 53 183 l0 58 -70 0 -70 0 0 -50 c0 -28 -4 -58 -9 -68 -5 -9 -14 -29
-21 -43 -7 -15 -24 -32 -39 -39 -14 -7 -34 -16 -43 -21 -10 -5 -29 -9 -43 -9
l-25 0 0 -157 c0 -87 -3 -263 -7 -390 l-6 -233 -54 0 -53 0 0 305 0 305 25 0
c25 0 25 1 25 85 l0 85 -40 0 c-22 0 -48 4 -58 9 -9 5 -29 14 -43 21 -15 7
-32 24 -39 39 -7 14 -16 34 -21 43 -5 10 -9 83 -9 163 0 131 2 148 21 178 33
50 93 87 139 87 l40 0 0 61 0 62 -76 -6 c-85 -6 -135 -32 -176 -93 -28 -41
-69 -47 -85 -11 -6 12 -30 36 -53 52 l-43 30 -187 0 -187 0 -36 -28 c-20 -15
-49 -44 -64 -64 -26 -34 -28 -43 -32 -155 l-3 -118 -539 0 c-505 0 -540 1
-545 18 -17 56 -57 124 -79 134 -47 21 -44 60 8 94 44 29 87 117 94 193 l6 61
-67 0 -66 0 0 -34 c0 -19 -4 -38 -10 -41 -5 -3 -16 -21 -25 -39 -9 -19 -32
-41 -56 -54 -36 -20 -56 -22 -180 -22 -77 0 -147 4 -157 9 -9 5 -29 14 -43 21
-15 7 -32 24 -39 39 -7 14 -16 34 -21 43 -5 10 -9 31 -9 48 0 29 -1 30 -51 30
l-52 0 5 -64 c7 -77 47 -159 95 -190 50 -33 53 -74 7 -95 -16 -7 -36 -34 -55
-76 l-31 -65 -109 0 -109 0 0 35 0 35 -320 0 -320 0 0 -200 0 -200 320 0 320
0 0 40 0 40 109 0 109 0 7 -32 c13 -63 53 -116 108 -146 52 -27 53 -27 252
-27 198 0 201 0 251 27 55 29 81 61 99 123 l12 40 561 3 c557 2 561 2 567 -18
4 -12 25 -33 48 -48 40 -27 42 -27 225 -28 l184 -2 64 -63 64 -63 0 -333 c0
-326 0 -333 20 -333 18 0 20 -7 20 -56 0 -30 5 -65 12 -77 6 -12 487 -502
1070 -1088 l1058 -1066 0 -97 c0 -53 -4 -96 -9 -96 -5 0 -10 -193 -13 -430
l-4 -430 -73 -74 -73 -73 1 -156 c1 -86 -2 -164 -7 -174 -5 -10 -15 -30 -22
-44 -7 -15 -24 -32 -39 -39 -14 -7 -34 -16 -43 -21 -10 -5 -25 -9 -33 -9 -11
0 -15 -12 -15 -50 0 -50 0 -50 33 -50 48 0 128 27 158 53 15 12 34 37 43 55
14 26 22 32 50 32 28 0 36 -5 46 -31 8 -18 29 -39 54 -52 38 -20 55 -22 226
-22 209 0 226 5 278 79 l27 39 0 226 0 226 -29 38 c-48 63 -79 79 -160 84 -39
2 -86 6 -103 9 l-33 5 0 384 c0 250 -4 385 -10 385 -5 0 -10 15 -10 33 l0 32
471 -1 470 -1 54 -53 53 -52 4 -112 c4 -125 15 -154 79 -217 21 -21 39 -43 39
-48 0 -6 -22 -33 -50 -61 -63 -63 -81 -99 -87 -172 l-6 -58 47 0 c42 0 46 2
46 24 0 42 40 102 82 125 36 19 56 21 189 21 136 0 152 -2 182 -21 41 -28 87
-92 87 -124 0 -24 3 -25 60 -25 l60 0 0 33 c0 70 -28 133 -85 192 -30 31 -55
60 -55 65 0 6 20 30 45 55 64 66 77 114 74 297 l-3 147 43 51 c24 29 51 50 62
50 11 0 43 -12 72 -27 l52 -28 232 -2 c147 -1 239 -6 252 -13 21 -11 21 -16
21 -453 l0 -442 -468 -468 -467 -467 -2500 0 -2500 0 -175 176 c-96 96 -187
182 -202 190 -15 8 -45 14 -66 14 l-39 0 -7 56 c-8 74 -45 134 -98 165 l-43
24 -520 0 -520 0 -43 -25 c-55 -31 -89 -88 -98 -163 l-7 -57 -907 0 -907 0 -7
56 c-8 74 -45 134 -98 165 l-43 24 -475 3 c-468 2 -475 3 -492 23 -44 52 -233
49 2805 49 2736 0 2823 1 2862 19 22 10 89 69 150 130 l110 111 676 0 676 0
11 -25 c10 -23 9 -29 -13 -53 -33 -35 -55 -110 -55 -184 l0 -58 50 0 50 0 0
45 c0 54 26 98 81 138 37 25 45 27 150 27 102 0 113 -2 143 -25 l32 -24 62 62
c61 62 62 63 62 120 0 44 -3 57 -15 57 -13 0 -15 41 -15 305 0 197 4 305 10
305 6 0 10 25 10 55 l0 55 -60 0 c-47 0 -60 -3 -60 -15 0 -13 -115 -15 -975
-15 l-975 0 0 -286 0 -286 -101 -109 -102 -109 -2838 0 c-1932 0 -2846 -3
-2865 -10 -15 -6 -80 -60 -145 -121 -90 -84 -121 -120 -129 -147 -6 -22 -10
-189 -10 -412 l0 -375 -469 -469 c-525 -525 -476 -489 -561 -413 -25 22 -70
51 -100 65 -47 22 -69 26 -155 26 -87 0 -108 -4 -158 -27 -156 -71 -268 -275
-236 -428 15 -72 75 -185 123 -232 21 -20 68 -52 105 -69 61 -29 74 -32 166
-32 92 0 105 3 166 32 37 17 84 49 105 69 40 39 106 155 118 207 5 21 168 193
566 597 308 311 564 579 570 593 5 15 10 44 10 65 0 30 5 40 24 49 19 8 29 7
47 -6 22 -15 74 -17 544 -17 l520 0 47 28 c58 35 95 96 104 171 l7 56 897 0
897 0 7 -57 c9 -77 44 -134 103 -169 l48 -29 520 0 520 0 47 28 c47 28 89 85
102 139 3 15 15 30 27 33 18 6 48 -19 178 -148 86 -86 169 -160 184 -166 39
-15 5144 -15 5184 0 42 15 1041 1015 1064 1064 17 36 19 67 19 292 0 246 1
253 21 264 17 9 23 7 35 -9 23 -33 112 -65 197 -70 l77 -5 0 57 0 56 -55 0
c-30 0 -63 4 -73 9 -9 5 -29 14 -43 21 -15 7 -32 24 -39 39 -7 14 -16 34 -21
43 -5 10 -9 65 -9 122 0 125 18 171 82 205 36 19 56 21 189 21 136 0 152 -2
182 -21 44 -29 87 -93 87 -129 l0 -30 65 0 65 0 0 38 c0 75 -27 137 -85 198
-30 31 -55 60 -55 64 0 5 20 29 45 54 56 58 75 118 75 241 0 87 1 92 24 103
22 10 52 -19 497 -469 724 -731 790 -801 778 -821 -8 -15 -24 -18 -84 -18
l-75 0 0 -400 0 -400 395 0 395 0 0 400 0 400 -135 0 -135 0 -15 37 c-8 21
-36 56 -61 79 -41 36 -45 43 -35 62 7 13 25 23 49 27 93 16 203 80 245 144 77
116 103 210 86 305 -22 127 -125 262 -236 313 -50 23 -71 27 -158 27 -87 0
-108 -4 -158 -27 -105 -48 -211 -182 -231 -290 -5 -28 -14 -40 -32 -47 -14 -6
-27 -10 -28 -10 -2 0 -513 512 -1135 1139 -828 834 -1130 1143 -1125 1155 5
14 38 16 288 16 225 0 286 3 309 15 41 21 157 126 173 157 20 39 48 44 92 16
35 -22 47 -23 197 -23 150 0 162 1 197 23 68 42 83 79 87 225 l3 127 157 0
156 0 349 -349 348 -348 -15 -29 c-9 -17 -20 -57 -26 -91 -15 -78 -1 -144 48
-238 45 -87 95 -136 180 -177 61 -29 74 -32 166 -32 92 0 105 3 166 32 85 41
135 90 180 177 49 94 63 160 48 239 -22 127 -125 262 -236 313 -50 23 -71 27
-158 27 -73 0 -111 -5 -140 -17 l-39 -18 -381 381 -381 380 -236 0 c-206 0
-237 2 -242 16 -11 30 -6 53 19 80 26 28 45 81 45 127 l0 27 409 0 408 0 92
-100 c92 -99 92 -99 77 -127 -8 -16 -19 -56 -25 -90 -15 -78 -1 -144 48 -238
45 -87 95 -136 180 -177 61 -29 74 -32 166 -32 92 0 105 3 166 32 85 41 135
90 180 177 49 94 63 160 48 239 -22 127 -125 262 -236 313 -50 23 -71 27 -158
27 -72 0 -111 -5 -139 -17 l-39 -17 -126 118 c-69 66 -136 124 -148 130 -15 9
-148 12 -461 12 l-439 0 -6 41 c-4 29 -1 49 10 65 l15 24 507 0 508 0 44 -41
c24 -22 73 -54 109 -71 59 -29 73 -32 165 -32 92 0 105 3 166 32 85 41 135 90
180 177 49 94 63 160 48 239 -22 127 -125 262 -236 313 -50 23 -71 27 -158 27
-87 0 -108 -4 -158 -27 -105 -48 -214 -185 -232 -293 -14 -82 44 -74 -519 -74
-494 0 -504 0 -530 21 l-26 20 0 200 0 199 -55 0 -55 0 0 -150 0 -150 -550 0
-550 0 0 150 0 150 -50 0 -50 0 0 -201 c0 -232 2 -228 -90 -229 -109 0 -110
-1 -356 -255 l-227 -235 -708 0 c-668 0 -709 1 -710 18 0 9 -1 123 -2 253 l-2
235 -27 42 c-19 27 -44 48 -78 64 l-50 23 0 128 0 128 -96 99 c-85 88 -94 101
-84 119 9 19 20 21 92 21 l80 0 164 -156 c98 -92 182 -163 207 -174 30 -14 65
-20 125 -20 l82 0 0 -120 0 -120 635 0 635 0 0 430 0 430 -635 0 -635 0 0
-120 0 -120 -36 0 c-33 0 -50 13 -180 136 l-144 136 0 49 0 49 -310 0 -310 0
0 -84 c0 -79 -2 -85 -22 -92 -19 -6 -38 10 -130 107 l-107 114 -1 168 0 167
-315 0 -315 0 0 -205z m530 5 l0 -120 -27 0 c-24 0 21 -49 340 -368 l367 -367
0 -163 0 -162 23 0 c15 0 42 -18 70 -46 l47 -46 0 -156 c0 -186 -11 -222 -74
-253 -55 -26 -177 -26 -232 0 -63 31 -74 67 -74 253 l0 156 47 46 c39 39 52
46 85 46 l38 0 0 147 0 148 -382 382 -383 383 -147 0 -148 0 0 120 0 120 225
0 225 0 0 -120z m890 -276 c0 -20 38 -66 166 -200 l167 -174 98 0 99 0 0 130
0 130 550 0 550 0 0 -350 0 -350 -550 0 -550 0 0 125 0 125 -127 0 c-107 0
-133 3 -158 18 -17 11 -97 89 -179 175 l-149 157 -184 0 -183 0 0 120 0 120
225 0 225 0 0 -26z m5024 -674 c60 -28 128 -97 157 -157 19 -38 24 -65 24
-128 0 -96 -23 -152 -91 -219 -67 -68 -123 -91 -219 -91 -62 0 -90 5 -125 23
-47 22 -105 71 -131 109 l-14 21 -1310 6 -1310 6 -245 -245 -245 -245 -1095 0
-1096 0 -43 -44 -43 -43 2 -317 1 -316 -56 0 -55 0 0 305 c0 252 2 305 14 305
7 0 16 12 19 28 3 16 32 53 70 90 l65 62 1093 0 1093 0 247 245 246 246 1306
-6 1306 -7 -6 56 c-3 30 0 76 6 103 24 97 118 198 215 229 58 20 163 12 220
-16z m-5841 -276 l47 -46 0 -157 c0 -134 -3 -163 -19 -197 -22 -45 -75 -74
-134 -74 l-37 0 7 -445 6 -445 -56 0 -57 0 0 305 c0 264 2 305 15 305 13 0 15
22 15 139 l0 140 -41 18 c-68 29 -79 66 -79 254 l0 157 47 46 46 46 97 0 97 0
46 -46z m-1874 -71 c76 -55 82 -74 80 -250 l-1 -156 141 -141 140 -141 7 -390
6 -390 1107 -1107 1106 -1108 72 0 c42 0 73 4 73 10 0 6 108 10 305 10 197 0
305 -4 305 -10 0 -6 49 -10 126 -10 l126 0 79 -77 c44 -42 79 -72 79 -67 0 6
19 20 42 33 39 21 53 22 206 20 l163 -2 175 173 c157 156 174 176 174 207 0
58 24 100 71 122 38 19 62 21 210 21 189 0 218 -9 258 -76 30 -50 30 -221 1
-289 -29 -68 -52 -75 -265 -75 -234 0 -258 10 -274 116 l-6 44 -150 -150 -149
-149 22 -30 c20 -27 22 -42 22 -140 0 -60 -4 -113 -10 -116 -5 -3 -16 -21 -25
-39 -9 -19 -32 -41 -56 -54 -36 -20 -56 -22 -180 -22 -77 0 -147 4 -157 9 -9
5 -29 14 -43 21 -15 7 -32 24 -39 39 -7 14 -16 34 -21 43 -5 10 -9 64 -9 120
l0 103 -72 72 -72 73 -113 0 c-69 0 -113 -4 -113 -10 0 -6 -108 -10 -305 -10
-197 0 -305 4 -305 10 0 6 -35 10 -84 10 -67 0 -88 4 -108 19 l-24 20 2 -501
2 -500 28 -29 c26 -27 33 -29 101 -29 63 0 78 -4 112 -27 74 -53 81 -74 81
-238 0 -80 -4 -153 -9 -163 -5 -9 -14 -29 -21 -43 -7 -15 -24 -32 -39 -39 -14
-7 -34 -16 -43 -21 -23 -12 -213 -12 -236 0 -9 5 -29 14 -43 21 -15 7 -32 24
-39 39 -7 14 -16 34 -21 43 -5 10 -9 83 -9 164 0 134 2 148 22 177 12 18 27
35 32 39 51 32 51 33 28 63 -18 23 -22 41 -22 101 0 59 -3 74 -15 74 -13 0
-15 41 -15 305 0 264 2 305 15 305 13 0 15 25 15 167 l0 168 -1070 1070 -1070
1070 0 103 0 102 -25 0 -25 0 0 308 0 307 -105 105 c-114 114 -100 108 -177
69 -24 -12 -225 -11 -233 1 -3 6 -14 10 -24 10 -24 0 -71 48 -71 71 0 18 -22
19 -645 19 l-645 0 0 -39 c0 -22 -4 -43 -10 -46 -5 -3 -16 -21 -25 -39 -9 -19
-32 -41 -56 -54 -36 -20 -56 -22 -180 -22 -77 0 -147 4 -157 9 -9 5 -29 14
-43 21 -15 7 -32 24 -39 39 -7 14 -16 34 -21 43 -5 10 -9 36 -9 58 l0 40 -195
0 -195 0 0 -40 0 -40 -240 0 -240 0 0 115 0 115 240 0 240 0 0 -40 0 -40 195
0 195 0 0 29 c0 46 38 106 82 130 36 19 56 21 189 21 136 0 152 -2 182 -21 47
-32 87 -93 87 -134 l0 -35 635 0 635 0 0 120 c0 135 9 160 79 212 34 25 43 27
148 27 107 1 115 0 152 -26z m4961 -184 c7 -13 12 -101 13 -237 l2 -217 28
-47 c34 -59 34 -83 -3 -141 l-30 -47 -1180 0 -1180 0 0 110 0 110 801 0 c691
0 805 2 833 15 17 8 135 118 261 245 l230 230 107 0 c98 0 108 -2 118 -21z
m499 -121 l131 -133 0 -468 0 -469 -67 -69 -66 -69 -357 0 c-342 0 -358 1
-383 20 -24 19 -40 20 -580 20 -541 0 -554 0 -572 -20 -12 -14 -31 -20 -58
-20 -31 0 -48 -7 -78 -35 -23 -20 -50 -35 -64 -35 -14 0 -25 -4 -25 -10 0 -6
-108 -10 -305 -10 l-305 0 0 55 0 55 305 0 c197 0 305 -4 305 -10 0 -19 23
-10 61 25 29 26 48 35 75 35 21 0 47 8 61 20 25 19 41 20 608 20 569 0 582 0
600 -20 17 -19 31 -20 349 -20 l330 0 48 47 48 47 0 441 0 441 -50 49 -50 49
0 -105 c0 -175 -38 -219 -190 -219 -97 0 -145 21 -171 74 -16 34 -19 63 -19
197 l0 157 47 46 46 46 97 0 97 0 132 -132z m624 86 c47 -46 47 -46 47 -115
l0 -69 492 0 493 0 140 -140 141 -141 54 28 c74 38 190 40 263 5 61 -31 129
-98 158 -159 33 -68 33 -188 0 -256 -29 -61 -97 -129 -158 -158 -68 -33 -188
-33 -256 0 -60 29 -129 97 -157 155 -44 92 -35 218 20 294 l28 39 -132 132
-131 131 -478 0 -477 0 0 -53 c0 -118 -56 -167 -190 -167 -97 0 -145 21 -171
74 -16 34 -19 63 -19 197 l0 157 47 46 46 46 97 0 97 0 46 -46z m-5333 -769
l0 -305 -55 0 -55 0 0 305 0 305 55 0 55 0 0 -305z m200 0 l0 -305 -55 0 -55
0 0 305 0 305 55 0 55 0 0 -305z m190 0 l0 -305 -55 0 -55 0 0 305 0 305 55 0
55 0 0 -305z m200 0 l0 -305 -55 0 -55 0 0 305 0 305 55 0 55 0 0 -305z m200
0 l0 -305 -55 0 -55 0 0 305 0 305 55 0 55 0 0 -305z m590 0 l0 -305 -55 0
-55 0 0 305 0 305 55 0 55 0 0 -305z m200 0 l0 -305 -55 0 -55 0 0 305 0 305
55 0 55 0 0 -305z m190 170 l0 -135 1255 0 c1070 0 1255 2 1255 14 0 8 21 35
47 60 l46 46 97 0 97 0 46 -46 47 -46 0 -156 c0 -186 -11 -222 -74 -253 -55
-26 -177 -26 -232 0 -58 28 -74 72 -74 204 l0 107 -1255 0 -1255 0 0 -135 0
-135 -55 0 -55 0 0 305 0 305 55 0 55 0 0 -135z m3543 -50 l38 -35 252 0 252
0 394 -394 394 -394 36 23 c78 51 199 57 287 15 58 -28 126 -97 155 -157 33
-68 33 -188 0 -256 -29 -61 -97 -129 -158 -158 -68 -33 -188 -33 -256 0 -60
29 -129 97 -157 155 -43 90 -36 209 17 290 l25 39 -383 383 -384 384 -227 0
-228 0 0 -133 c0 -111 -3 -140 -19 -173 -26 -53 -74 -74 -171 -74 -97 0 -145
21 -171 74 -16 34 -19 63 -19 197 l0 157 47 46 46 46 96 0 c96 0 96 0 134 -35z
m-1101 -337 c3 -72 0 -111 -9 -130 -13 -26 -18 -28 -78 -28 -52 0 -69 4 -85
20 -20 20 -33 20 -645 20 -612 0 -625 0 -645 -20 -13 -13 -33 -20 -61 -20 -33
0 -47 -6 -69 -30 l-28 -30 -341 0 -341 0 0 -1065 0 -1064 -24 -13 c-24 -13
-56 19 -1096 1052 -1071 1064 -1072 1065 -1059 1093 12 26 14 27 96 27 49 0
83 4 83 10 0 7 332 10 975 10 l975 0 0 135 0 135 1174 0 1174 0 4 -102z m970
-1615 c698 -698 1268 -1273 1268 -1278 0 -6 97 -107 215 -225 213 -213 215
-215 215 -257 l0 -43 135 0 135 0 0 -315 0 -315 -315 0 -315 0 0 315 0 315
145 0 145 0 0 27 c0 35 -71 108 -1675 1718 l-1250 1255 -490 0 -490 0 -80 -80
-80 -80 -77 0 c-45 0 -78 -4 -78 -10 0 -6 -108 -10 -305 -10 l-305 0 0 55 0
55 305 0 c197 0 305 -4 305 -10 0 -6 28 -10 63 -10 l62 0 80 80 80 80 520 0
520 0 1267 -1267z m-714 504 c599 -599 613 -614 601 -639 l-11 -26 -157 -4
c-146 -3 -159 -5 -206 -30 -41 -21 -55 -35 -72 -75 -12 -26 -25 -58 -28 -70
-5 -18 -14 -23 -38 -23 -27 0 -45 13 -105 73 -39 40 -72 78 -72 85 0 7 7 35
16 62 13 39 15 81 12 202 -4 180 -13 204 -93 246 -48 26 -58 27 -225 30 l-174
4 -207 199 -207 199 -4 123 c-3 100 -8 129 -25 162 -19 36 -20 43 -7 68 l15
27 187 0 187 0 613 -613z m-1155 522 c17 -12 44 -39 60 -60 25 -37 27 -46 27
-142 l0 -102 232 -232 233 -233 172 0 c194 0 222 -8 262 -76 30 -50 30 -221 1
-289 -29 -68 -52 -75 -265 -75 -264 0 -275 8 -275 218 0 95 4 125 18 154 l19
36 -217 217 c-170 170 -220 214 -226 202 -5 -8 -26 -24 -47 -36 -33 -19 -54
-21 -177 -21 -77 0 -148 4 -158 9 -9 5 -29 14 -43 21 -15 7 -33 23 -40 36 -11
22 -14 23 -29 9 -13 -12 -45 -15 -143 -15 -78 0 -127 -4 -127 -10 0 -6 -108
-10 -305 -10 l-305 0 0 55 0 55 305 0 c197 0 305 -4 305 -10 0 -6 44 -10 112
-10 101 0 114 2 135 22 20 19 23 31 23 104 0 98 23 151 79 182 31 18 55 20
189 21 139 1 155 -1 185 -20z m-723 -154 l0 -55 -305 0 -305 0 0 55 0 55 305
0 305 0 0 -55z m0 -345 c0 -6 34 -10 82 -10 l83 0 85 -85 85 -85 29 15 c21 11
65 15 177 15 169 0 189 -7 242 -81 25 -37 27 -45 27 -149 0 -60 -4 -112 -10
-115 -5 -3 -16 -21 -25 -39 -9 -19 -32 -41 -56 -54 -36 -20 -56 -22 -180 -22
-77 0 -147 4 -157 9 -9 5 -29 14 -43 21 -15 7 -32 24 -39 39 -7 14 -16 34 -21
43 -14 27 -11 232 3 246 10 10 -5 30 -67 92 l-80 80 -67 0 c-39 0 -68 -4 -68
-10 0 -6 -108 -10 -305 -10 l-305 0 0 55 0 55 305 0 c197 0 305 -4 305 -10z
m0 -200 c0 -5 10 -10 22 -10 15 0 50 -27 100 -77 l78 -78 0 -110 0 -110 107
-107 108 -108 655 0 655 0 85 -85 85 -85 87 0 88 0 0 34 c0 51 36 110 82 135
36 19 56 21 189 21 169 0 189 -7 242 -81 25 -37 27 -45 27 -149 0 -60 -4 -112
-10 -115 -5 -3 -16 -21 -25 -39 -9 -19 -32 -41 -56 -54 -36 -20 -56 -22 -180
-22 -77 0 -147 4 -157 9 -77 39 -62 46 -182 -74 l-110 -110 0 -520 0 -520
-512 -512 -513 -513 -2560 0 -2560 0 -190 190 -190 190 -62 0 -63 0 0 -54 c0
-35 -5 -58 -15 -66 -8 -7 -15 -21 -15 -31 0 -24 -65 -89 -90 -89 -10 0 -22 -4
-25 -10 -4 -6 -163 -10 -445 -10 -282 0 -441 4 -445 10 -3 6 -17 10 -30 10
-32 0 -95 63 -95 95 0 13 -4 27 -10 30 -5 3 -10 31 -10 61 l0 54 -985 0 -985
0 0 -54 c0 -35 -5 -58 -15 -66 -8 -7 -15 -21 -15 -31 0 -24 -65 -89 -90 -89
-10 0 -22 -4 -25 -10 -8 -14 -882 -14 -890 0 -3 6 -17 10 -30 10 -32 0 -95 63
-95 95 0 13 -4 27 -10 30 -13 8 -13 292 0 300 6 3 10 15 10 25 0 25 65 90 90
90 10 0 22 5 25 10 4 6 165 10 450 10 430 0 446 -1 482 -21 40 -21 83 -66 83
-85 0 -6 7 -17 15 -24 10 -8 15 -31 15 -66 l0 -54 985 0 985 0 0 54 c0 30 5
58 10 61 6 3 10 15 10 25 0 25 65 90 90 90 10 0 22 5 25 10 4 6 165 10 450 10
430 0 446 -1 482 -21 40 -21 83 -66 83 -85 0 -6 7 -17 15 -24 10 -8 15 -31 15
-66 l0 -54 78 0 77 0 190 -190 190 -190 2530 0 2530 0 493 493 492 492 0 519
0 519 128 131 c126 130 127 131 124 174 l-3 42 -101 0 -101 0 -86 85 -87 85
-654 0 -654 0 -128 128 -128 128 0 110 0 110 -61 59 c-38 37 -63 55 -66 48 -4
-10 -75 -13 -309 -13 l-304 0 0 55 0 55 305 0 c197 0 305 -4 305 -10z m0 -235
l0 -55 -305 0 -305 0 0 55 0 55 305 0 305 0 0 -55z m0 -200 l0 -55 -305 0
-305 0 0 55 0 55 305 0 305 0 0 -55z m235 -195 c56 -54 114 -104 129 -110 17
-6 155 -10 371 -10 l343 0 14 -22 c9 -15 12 -32 7 -48 -4 -14 -7 -38 -8 -55
-1 -24 -26 -55 -143 -172 l-143 -143 -156 0 c-103 0 -171 -5 -202 -14 l-45
-14 -43 44 c-52 53 -86 64 -196 64 l-83 0 0 278 0 279 23 11 c12 6 24 11 26
11 3 1 50 -44 106 -99z m-235 -5 l0 -55 -305 0 -305 0 0 55 0 55 305 0 305 0
0 -55z m0 -200 l0 -55 -305 0 -305 0 0 55 0 55 305 0 305 0 0 -55z m0 -190 l0
-55 -305 0 -305 0 0 55 0 55 305 0 305 0 0 -55z m4374 -135 c60 -28 128 -97
157 -157 19 -38 24 -65 24 -128 0 -96 -23 -152 -91 -219 -67 -68 -123 -91
-219 -91 -96 0 -152 23 -219 91 -110 110 -126 264 -40 390 39 58 107 110 168
130 58 20 163 12 220 -16z m-7354 -625 l0 -305 -38 0 c-35 0 -47 -9 -167 -130
l-130 -130 -2855 0 -2855 0 -87 -87 -88 -88 0 -395 0 -395 -569 -570 -569
-570 -11 -55 c-24 -114 -129 -218 -244 -241 -203 -41 -395 132 -374 337 11
104 84 206 184 256 68 33 188 33 256 0 60 -30 129 -98 157 -158 l23 -46 538
538 539 539 0 394 0 395 108 108 108 108 2854 0 2855 0 127 127 128 128 0 272
0 273 55 0 55 0 0 -305z m190 0 l0 -305 -55 0 -55 0 0 305 0 305 55 0 55 0 0
-305z m200 0 l0 -305 -55 0 -55 0 0 305 0 305 55 0 55 0 0 -305z m200 0 l0
-305 -55 0 -55 0 0 305 0 305 55 0 55 0 0 -305z m190 0 l0 -305 -55 0 -55 0 0
305 0 305 55 0 55 0 0 -305z m200 0 l0 -305 -55 0 -55 0 0 305 0 305 55 0 55
0 0 -305z m200 0 l0 -305 -55 0 -55 0 0 305 0 305 55 0 55 0 0 -305z m200 0
l0 -305 -55 0 -55 0 0 305 0 305 55 0 55 0 0 -305z m190 0 l0 -305 -55 0 -55
0 0 305 0 305 55 0 55 0 0 -305z m200 0 l0 -305 -55 0 -55 0 0 305 0 305 55 0
55 0 0 -305z"/>
<path d="M17815 9061 c-48 -12 -100 -52 -131 -100 -40 -63 -40 -149 1 -213 87
-138 273 -138 360 0 24 37 29 56 29 107 0 51 -5 70 -29 107 -49 77 -147 120
-230 99z"/>
<path d="M17815 8061 c-48 -12 -100 -52 -131 -100 -40 -63 -40 -149 1 -213 87
-138 273 -138 360 0 24 37 29 56 29 107 0 51 -5 70 -29 107 -49 77 -147 120
-230 99z"/>
<path d="M17815 7061 c-48 -12 -100 -52 -131 -100 -40 -63 -40 -149 1 -213 87
-138 273 -138 360 0 24 37 29 56 29 107 0 51 -5 70 -29 107 -49 77 -147 120
-230 99z"/>
<path d="M17815 4061 c-48 -12 -100 -52 -131 -100 -23 -36 -28 -55 -28 -106 0
-77 35 -138 102 -180 96 -61 223 -28 287 73 24 37 29 56 29 107 0 51 -5 70
-29 107 -49 77 -147 120 -230 99z"/>
<path d="M17815 5061 c-48 -12 -100 -52 -131 -100 -23 -36 -28 -55 -28 -106 0
-77 35 -138 102 -180 96 -61 223 -28 287 73 24 37 29 56 29 107 0 51 -5 70
-29 107 -49 77 -147 120 -230 99z"/>
<path d="M2915 2061 c-48 -12 -100 -52 -131 -100 -40 -63 -40 -149 1 -213 87
-138 273 -138 360 0 24 37 29 56 29 107 0 51 -5 70 -29 107 -49 77 -147 120
-230 99z"/>
<path d="M2580 9860 l0 -400 272 0 273 0 610 -609 c523 -522 616 -611 650
-620 26 -7 184 -11 437 -11 l397 0 17 -32 c9 -18 34 -49 55 -71 22 -21 39 -42
39 -46 0 -5 -22 -32 -50 -60 -64 -65 -82 -101 -88 -178 l-5 -63 52 0 c50 0 51
1 51 29 0 46 38 106 82 130 36 19 56 21 189 21 136 0 152 -2 182 -21 44 -29
87 -93 87 -129 l0 -30 65 0 65 0 0 38 c0 75 -27 137 -85 198 -30 31 -55 60
-55 65 0 5 17 25 39 46 21 22 46 53 55 71 l17 32 104 0 105 0 0 -60 0 -60 50
0 50 0 0 35 0 35 240 0 240 0 0 -35 0 -35 50 0 50 0 0 90 c0 53 -4 90 -10 90
-6 0 -10 65 -10 175 l0 175 -320 0 -320 0 0 -30 c0 -29 -2 -30 -45 -30 -36 0
-47 4 -56 22 -11 21 23 57 562 590 l574 567 1680 1 1680 0 285 -289 c242 -246
291 -291 325 -300 23 -6 247 -14 527 -17 l488 -7 0 201 0 202 -315 0 c-203 0
-315 -4 -315 -10 0 -6 -47 -10 -122 -10 l-122 0 -291 289 c-241 240 -297 291
-330 300 -44 12 -3556 16 -3616 4 -28 -5 -159 -130 -734 -699 l-701 -692 -129
-4 c-117 -3 -135 -6 -182 -31 -37 -19 -58 -38 -75 -69 l-23 -43 -354 -3 -353
-2 -574 566 -574 566 0 279 0 279 -395 0 -395 0 0 -400z m700 63 l0 -248 597
-597 598 -598 405 0 405 0 23 48 c36 77 74 92 230 92 l127 0 675 676 c371 372
693 689 714 705 l39 29 1774 0 c1521 0 1778 -2 1801 -14 15 -8 155 -143 312
-300 l285 -286 182 0 c156 0 183 2 183 15 0 13 32 15 225 15 l225 0 0 -120 0
-120 -225 0 c-143 0 -225 4 -225 10 0 6 -77 10 -210 10 -164 0 -217 3 -238 14
-15 8 -155 143 -312 300 l-285 286 -1720 0 -1720 0 -661 -661 c-506 -506 -660
-666 -657 -680 5 -18 18 -19 209 -19 l204 0 0 35 0 35 240 0 240 0 0 -113 0
-114 -187 -6 c-104 -4 -303 -7 -443 -7 -241 0 -256 -1 -265 -19 -6 -11 -18
-34 -28 -53 -10 -20 -35 -44 -58 -56 -36 -20 -56 -22 -180 -22 -77 0 -147 4
-157 9 -9 5 -29 14 -43 21 -26 12 -35 24 -61 88 l-13 32 -428 0 c-353 0 -433
3 -455 14 -15 8 -297 285 -627 615 l-600 601 -262 0 -263 0 0 315 0 315 315 0
315 0 0 -247z"/>
<path d="M2915 10061 c-48 -12 -100 -52 -131 -100 -40 -63 -40 -149 1 -213 87
-138 273 -138 360 0 24 37 29 56 29 107 0 51 -5 70 -29 107 -49 77 -147 120
-230 99z"/>
<path d="M15100 9595 l0 -205 50 0 50 0 0 155 0 155 255 0 255 0 0 50 0 50
-305 0 -305 0 0 -205z"/>
<path d="M15800 9750 l0 -50 250 0 250 0 0 -155 0 -155 55 0 55 0 0 205 0 205
-305 0 -305 0 0 -50z"/>
<path d="M8166 9430 c-100 -31 -176 -136 -176 -247 l0 -43 50 0 c49 0 50 1 50
29 0 16 10 47 21 69 29 54 83 82 160 82 l59 0 0 60 0 60 -67 -1 c-38 0 -81 -5
-97 -9z"/>
<path d="M8420 9381 l0 -61 45 0 c54 0 98 -26 138 -81 15 -22 27 -53 27 -69
l0 -30 65 0 65 0 0 38 c0 66 -27 137 -70 180 -57 60 -93 75 -187 80 l-83 5 0
-62z"/>
<path d="M2840 9260 c-75 -27 -155 -85 -191 -137 -37 -54 -75 -138 -85 -187
l-6 -37 47 3 c47 3 48 4 60 44 27 92 129 189 223 214 l42 11 0 54 c0 64 -4 65
-90 35z"/>
<path d="M3020 9222 c0 -59 0 -60 33 -66 82 -16 200 -138 214 -219 l6 -37 59
0 59 0 -7 38 c-11 64 -73 182 -121 228 -48 47 -144 98 -205 109 l-38 7 0 -60z"/>
<path d="M2915 9061 c-48 -12 -100 -52 -131 -100 -40 -63 -40 -149 1 -213 87
-138 273 -138 360 0 24 37 29 56 29 107 0 51 -5 70 -29 107 -49 77 -147 120
-230 99z"/>
<path d="M10850 8881 c0 -58 1 -61 25 -61 32 0 96 -46 124 -87 14 -23 21 -48
21 -83 l0 -50 70 0 70 0 0 63 c0 113 -35 190 -110 242 -31 22 -54 28 -119 32
l-81 6 0 -62z"/>
<path d="M2565 8778 c18 -82 59 -162 111 -214 55 -55 150 -106 217 -118 l38
-7 -3 52 -3 52 -46 11 c-90 23 -187 118 -214 210 -12 40 -13 41 -59 44 l-48 3
7 -33z"/>
<path d="M3267 8773 c-14 -81 -132 -203 -214 -219 -32 -6 -33 -8 -33 -61 l0
-54 38 7 c160 30 290 161 327 332 l7 32 -60 0 -59 0 -6 -37z"/>
<path d="M2890 8251 c-193 -42 -347 -269 -309 -452 15 -72 75 -185 123 -232
21 -20 68 -52 105 -69 61 -29 74 -32 166 -31 72 0 111 5 139 17 l39 18 876
-876 c491 -491 888 -880 904 -886 19 -7 472 -10 1416 -10 l1389 0 4 -98 c4
-112 23 -155 86 -194 34 -21 48 -23 192 -23 144 0 158 2 192 23 20 13 47 40
60 60 22 36 23 45 23 262 0 217 -1 226 -23 262 -13 20 -40 47 -60 60 -34 21
-48 23 -193 23 -151 0 -157 -1 -195 -26 -22 -14 -48 -43 -59 -63 l-20 -36
-1360 0 -1360 0 -848 848 -849 849 15 35 c29 70 38 137 26 202 -22 127 -126
264 -235 312 -61 27 -180 39 -244 25z m163 -95 c106 -32 199 -134 219 -243 14
-75 -1 -160 -36 -214 l-24 -36 886 -886 887 -887 1418 0 c1208 0 1417 2 1417
14 0 8 21 35 47 60 l46 46 97 0 97 0 46 -46 47 -46 0 -157 c0 -134 -3 -163
-19 -197 -26 -53 -74 -74 -171 -74 -153 0 -190 44 -190 222 l0 108 -1432 0
-1433 0 -896 896 -896 896 -40 -26 c-92 -61 -233 -57 -329 9 -151 104 -188
294 -84 438 80 112 216 161 343 123z"/>
<path d="M2915 8061 c-48 -12 -100 -52 -131 -100 -40 -63 -40 -149 1 -213 87
-138 273 -138 360 0 24 37 29 56 29 107 0 51 -5 70 -29 107 -49 77 -147 120
-230 99z"/>
<path d="M8180 8011 c-70 -22 -110 -52 -133 -99 -13 -26 -27 -59 -31 -74 l-6
-28 -110 0 -110 0 0 35 0 35 -320 0 -320 0 0 -195 0 -195 320 0 320 0 0 35 0
35 110 0 c97 0 111 -2 116 -17 19 -58 32 -81 71 -120 24 -25 43 -48 43 -53 0
-4 -22 -31 -50 -59 -64 -65 -82 -101 -88 -178 l-5 -63 52 0 c50 0 51 1 51 29
0 46 38 106 82 130 36 19 56 21 189 21 136 0 152 -2 182 -21 44 -29 87 -93 87
-129 l0 -30 65 0 65 0 0 38 c0 75 -27 137 -85 198 -30 31 -55 60 -55 64 0 5
20 29 45 54 64 67 78 121 73 294 -3 126 -6 141 -31 189 -22 42 -38 58 -80 80
-51 27 -56 28 -237 30 -102 1 -196 -2 -210 -6z m363 -112 c17 -12 44 -39 60
-60 25 -37 27 -45 27 -149 0 -60 -4 -112 -10 -115 -5 -3 -16 -21 -25 -39 -9
-19 -32 -41 -56 -54 -36 -20 -56 -22 -180 -22 -77 0 -147 4 -157 9 -9 5 -29
14 -43 21 -15 7 -32 24 -39 39 -7 14 -16 34 -21 43 -5 10 -9 31 -9 48 l0 30
-195 0 -195 0 0 -40 0 -40 -240 0 -240 0 0 115 0 115 240 0 240 0 0 -40 0 -40
195 0 195 0 0 39 c0 53 35 114 79 139 31 18 55 20 189 21 139 1 155 -1 185
-20z"/>
<path d="M6140 7925 c0 -50 4 -85 10 -85 6 0 10 -65 10 -175 l0 -175 70 0 70
0 0 -69 0 -70 -55 -55 c-77 -76 -99 -129 -99 -236 0 -66 4 -95 21 -132 28 -61
105 -139 174 -174 46 -24 66 -28 134 -28 68 0 88 4 134 28 69 36 146 113 173
173 16 37 21 68 21 133 0 107 -22 160 -98 236 l-55 55 0 70 0 69 75 0 75 0 0
175 c0 110 4 175 10 175 6 0 10 35 10 85 l0 85 -50 0 -50 0 0 -35 0 -35 -240
0 -240 0 0 35 0 35 -50 0 -50 0 0 -85z m580 -240 l0 -115 -80 0 -80 0 0 -139
0 -139 44 -28 c27 -17 57 -49 78 -83 70 -116 32 -258 -90 -332 -49 -30 -65
-34 -122 -34 -90 0 -162 42 -211 123 -30 49 -34 65 -34 122 0 57 4 73 34 122
23 38 49 64 82 84 l49 29 0 138 0 137 -75 0 -75 0 0 115 0 115 240 0 240 0 0
-115z"/>
<path d="M6432 7193 c-13 -2 -38 -19 -56 -38 -57 -56 -57 -133 -1 -190 36 -35
78 -48 126 -38 41 8 94 62 102 103 21 100 -68 184 -171 163z"/>
<path d="M5192 7615 c12 -146 99 -224 259 -233 l79 -5 0 57 0 56 -55 0 c-30 0
-63 4 -73 9 -9 5 -29 14 -43 21 -15 7 -32 24 -39 39 -7 14 -16 34 -21 43 -5
10 -9 31 -9 48 0 29 -1 30 -51 30 l-52 0 5 -65z"/>
<path d="M5830 7646 c0 -19 -4 -38 -10 -41 -5 -3 -16 -21 -25 -39 -19 -40 -83
-76 -136 -76 l-39 0 0 -56 0 -57 79 5 c116 7 185 43 224 119 18 36 31 79 34
118 l6 61 -67 0 -66 0 0 -34z"/>
<path d="M9640 6880 l0 -500 -165 0 c-120 0 -175 -4 -198 -14 -18 -8 -97 -79
-176 -160 l-145 -145 -35 22 c-33 20 -48 22 -191 22 -144 0 -158 -2 -192 -23
-20 -13 -47 -40 -60 -60 -22 -36 -23 -45 -23 -262 0 -217 1 -226 23 -262 43
-68 79 -82 232 -88 140 -5 180 -17 180 -51 0 -35 -41 -47 -181 -50 -152 -4
-188 -18 -231 -87 -22 -36 -23 -45 -23 -262 0 -217 1 -226 23 -262 43 -69 79
-83 228 -86 72 -2 146 0 166 6 28 8 37 6 45 -7 8 -13 0 -28 -40 -73 l-50 -58
-2206 0 -2206 0 -630 -630 -631 -631 -39 18 c-29 12 -67 17 -140 17 -87 0
-108 -4 -158 -27 -156 -71 -268 -275 -236 -428 15 -72 75 -185 123 -232 21
-20 68 -52 105 -69 61 -29 74 -32 166 -32 92 0 105 3 166 32 85 41 135 90 180
177 49 94 63 160 48 238 -6 34 -17 74 -26 91 l-15 29 598 598 599 599 2182 0
c1510 0 2190 3 2210 11 37 14 639 613 664 662 l19 37 410 0 410 0 0 1220 0
1220 -390 0 -390 0 0 -500z m680 365 l0 -55 -305 0 -305 0 0 55 0 55 305 0
305 0 0 -55z m0 -200 l0 -55 -305 0 -305 0 0 55 0 55 305 0 305 0 0 -55z m0
-200 l0 -55 -305 0 -305 0 0 55 0 55 305 0 305 0 0 -55z m0 -190 l0 -55 -305
0 -305 0 0 55 0 55 305 0 305 0 0 -55z m0 -200 l0 -55 -305 0 -305 0 0 55 0
55 305 0 305 0 0 -55z m0 -200 l0 -55 -305 0 c-197 0 -305 4 -305 10 0 6 -69
10 -187 10 l-188 0 -217 -217 -218 -218 0 -89 c0 -160 -42 -206 -189 -206 -98
0 -146 21 -172 74 -16 34 -19 63 -19 197 l0 157 47 46 46 46 97 0 97 0 46 -46
c26 -25 47 -53 47 -62 0 -9 91 75 203 186 l203 202 202 0 c128 0 202 4 202 10
0 6 108 10 305 10 l305 0 0 -55z m0 -190 l0 -55 -305 0 c-197 0 -305 4 -305
10 0 6 -52 10 -137 10 l-138 0 -177 -177 -178 -178 0 -180 0 -180 -91 -91 -91
-91 1 -162 c2 -194 -8 -231 -73 -262 -55 -26 -177 -26 -232 0 -63 31 -74 67
-74 253 l0 156 47 46 46 46 95 0 c76 0 99 -4 114 -17 18 -16 23 -13 103 67
l85 85 0 179 0 180 197 198 197 198 153 0 c95 0 153 4 153 10 0 6 108 10 305
10 l305 0 0 -55z m-670 -295 l0 -180 -24 0 c-14 0 -37 -5 -53 -11 -38 -14
-182 -156 -199 -196 -10 -24 -14 -80 -14 -207 l0 -174 -167 -160 c-160 -152
-169 -159 -190 -145 -18 12 -20 19 -12 46 5 18 9 110 9 206 l0 174 70 72 c38
40 74 84 80 99 5 15 10 97 10 183 l0 155 151 159 151 159 94 0 94 0 0 -180z
m670 95 l0 -55 -305 0 -305 0 0 55 0 55 305 0 305 0 0 -55z m0 -200 l0 -55
-305 0 -305 0 0 55 0 55 305 0 305 0 0 -55z m0 -200 l0 -55 -305 0 c-197 0
-305 4 -305 10 0 6 -19 10 -42 10 -38 0 -48 -6 -100 -57 l-58 -57 0 -186 0
-185 -312 -312 -313 -313 -2200 0 -2200 0 -637 -637 -636 -636 24 -36 c59 -90
54 -232 -12 -327 -129 -188 -390 -188 -518 -1 -86 127 -70 281 40 391 105 105
262 125 378 49 l39 -25 646 646 646 646 2200 0 2200 0 292 292 293 293 0 186
0 186 79 76 79 77 56 0 c31 0 56 5 56 10 0 6 108 10 305 10 l305 0 0 -55z m0
-190 l0 -55 -305 0 -305 0 0 55 0 55 305 0 305 0 0 -55z m0 -200 l0 -55 -305
0 -305 0 0 55 0 55 305 0 305 0 0 -55z"/>
<path d="M2915 3061 c-48 -12 -100 -52 -131 -100 -23 -36 -28 -55 -28 -106 0
-77 35 -138 102 -180 96 -61 223 -28 287 73 24 37 29 56 29 107 0 51 -5 70
-29 107 -49 77 -147 120 -230 99z"/>
<path d="M2890 7251 c-193 -42 -347 -269 -309 -452 15 -72 75 -185 123 -232
21 -20 68 -52 105 -69 61 -29 74 -32 166 -31 72 0 111 5 139 17 l39 18 826
-826 c462 -462 838 -830 854 -836 19 -7 487 -10 1466 -10 l1438 0 6 -51 c8
-63 37 -111 85 -141 34 -21 48 -23 192 -23 144 0 158 2 192 23 20 13 47 40 60
60 22 36 23 45 23 262 0 217 -1 226 -23 262 -13 20 -40 47 -60 60 -34 21 -48
23 -192 23 -144 0 -158 -2 -192 -23 -50 -31 -78 -80 -85 -147 l-6 -55 -1406 0
-1406 0 -798 798 -799 799 15 35 c29 70 38 137 26 202 -22 127 -126 264 -235
312 -61 27 -180 39 -244 25z m163 -95 c106 -32 199 -134 219 -243 14 -75 -1
-160 -36 -214 l-24 -36 836 -836 837 -837 1468 0 1467 0 0 64 c0 63 1 65 47
110 l46 46 97 0 97 0 46 -46 47 -46 0 -157 c0 -134 -3 -163 -19 -197 -26 -53
-74 -74 -171 -74 -136 0 -190 49 -190 172 l0 58 -1482 0 -1483 0 -846 846
-846 846 -40 -26 c-92 -61 -233 -57 -329 9 -151 104 -188 294 -84 438 80 112
216 161 343 123z"/>
<path d="M2915 7061 c-48 -12 -100 -52 -131 -100 -40 -63 -40 -149 1 -213 87
-138 273 -138 360 0 24 37 29 56 29 107 0 51 -5 70 -29 107 -49 77 -147 120
-230 99z"/>
<path d="M7992 6915 c12 -146 99 -224 259 -233 l79 -5 0 57 0 56 -55 0 c-30 0
-63 4 -73 9 -9 5 -29 14 -43 21 -15 7 -32 24 -39 39 -7 14 -16 34 -21 43 -5
10 -9 31 -9 48 0 29 -1 30 -51 30 l-52 0 5 -65z"/>
<path d="M8630 6946 c0 -19 -4 -38 -10 -41 -5 -3 -16 -21 -25 -39 -19 -40 -83
-76 -136 -76 l-39 0 0 -56 0 -57 79 5 c116 7 185 43 224 119 18 36 31 79 34
118 l6 61 -67 0 -66 0 0 -34z"/>
<path d="M17740 6260 c-75 -27 -155 -85 -191 -137 -37 -54 -75 -138 -85 -187
l-6 -37 47 3 c47 3 48 4 60 44 27 92 129 189 223 214 l42 11 0 54 c0 64 -4 65
-90 35z"/>
<path d="M17920 6222 c0 -59 0 -60 33 -66 82 -16 200 -138 214 -219 l6 -37 59
0 59 0 -7 38 c-11 64 -73 182 -121 228 -48 47 -144 98 -205 109 l-38 7 0 -60z"/>
<path d="M17815 6061 c-48 -12 -100 -52 -131 -100 -40 -63 -40 -149 1 -213 87
-138 273 -138 360 0 24 37 29 56 29 107 0 51 -5 70 -29 107 -49 77 -147 120
-230 99z"/>
<path d="M17465 5778 c18 -82 59 -162 111 -214 55 -55 150 -106 217 -118 l38
-7 -3 52 -3 52 -46 11 c-90 23 -187 118 -214 210 -12 40 -13 41 -59 44 l-48 3
7 -33z"/>
<path d="M18167 5773 c-14 -81 -132 -203 -214 -219 -32 -6 -33 -8 -33 -61 l0
-54 38 7 c160 30 290 161 327 332 l7 32 -60 0 -59 0 -6 -37z"/>
<path d="M2580 4860 l0 -400 395 0 395 0 0 400 0 400 -395 0 -395 0 0 -400z
m700 -5 l0 -315 -315 0 -315 0 0 315 0 315 315 0 315 0 0 -315z"/>
<path d="M2915 5061 c-48 -12 -100 -52 -131 -100 -23 -36 -28 -55 -28 -106 0
-77 35 -138 102 -180 96 -61 223 -28 287 73 24 37 29 56 29 107 0 51 -5 70
-29 107 -49 77 -147 120 -230 99z"/>
<path d="M16230 4746 c0 -19 -4 -38 -10 -41 -5 -3 -16 -21 -25 -39 -19 -40
-83 -76 -136 -76 l-39 0 0 -56 0 -57 79 5 c116 7 185 43 224 119 18 36 31 79
34 118 l6 61 -67 0 -66 0 0 -34z"/>
<path d="M2840 4260 c-75 -27 -155 -85 -191 -137 -37 -54 -75 -138 -85 -187
l-6 -37 47 3 c47 3 48 4 60 44 27 92 129 189 223 214 l42 11 0 54 c0 64 -4 65
-90 35z"/>
<path d="M3020 4222 c0 -59 0 -60 33 -66 82 -16 200 -138 214 -219 l6 -37 59
0 59 0 -7 38 c-11 64 -73 182 -121 228 -48 47 -144 98 -205 109 l-38 7 0 -60z"/>
<path d="M13892 4015 c12 -146 99 -224 259 -233 l79 -5 0 57 0 56 -55 0 c-30
0 -63 4 -73 9 -9 5 -29 14 -43 21 -15 7 -32 24 -39 39 -7 14 -16 34 -21 43 -5
10 -9 31 -9 48 0 29 -1 30 -51 30 l-52 0 5 -65z"/>
<path d="M14530 4046 c0 -19 -4 -38 -10 -41 -5 -3 -16 -21 -25 -39 -19 -40
-83 -76 -136 -76 l-39 0 0 -56 0 -57 79 5 c116 7 185 43 224 119 18 36 31 79
34 118 l6 61 -67 0 -66 0 0 -34z"/>
<path d="M2915 4061 c-48 -12 -100 -52 -131 -100 -23 -36 -28 -55 -28 -106 0
-77 35 -138 102 -180 96 -61 223 -28 287 73 24 37 29 56 29 107 0 51 -5 70
-29 107 -49 77 -147 120 -230 99z"/>
<path d="M2565 3778 c18 -82 59 -162 111 -214 55 -55 150 -106 217 -118 l38
-7 -3 52 -3 52 -46 11 c-90 23 -187 118 -214 210 -12 40 -13 41 -59 44 l-48 3
7 -33z"/>
<path d="M3267 3773 c-14 -81 -132 -203 -214 -219 -32 -6 -33 -8 -33 -61 l0
-54 38 7 c160 30 290 161 327 332 l7 32 -60 0 -59 0 -6 -37z"/>
<path d="M11890 3652 c0 -170 106 -282 267 -282 l43 0 0 55 0 55 -35 0 c-19 0
-43 4 -53 9 -9 5 -29 14 -43 21 -15 7 -32 24 -39 39 -7 14 -16 34 -21 43 -5
10 -9 40 -9 68 l0 50 -55 0 -55 0 0 -58z"/>
<path d="M4620 2046 c-132 -35 -200 -134 -200 -288 l0 -58 55 0 55 0 0 49 c0
28 5 53 10 56 6 3 10 15 10 25 0 25 65 90 90 90 10 0 22 5 25 10 4 6 85 10
211 10 l204 0 0 60 0 60 -207 -1 c-131 0 -225 -5 -253 -13z"/>
<path d="M5170 2001 l0 -61 195 0 c177 0 198 -2 232 -21 40 -21 83 -66 83 -85
0 -6 7 -17 15 -24 10 -8 15 -30 15 -61 l0 -49 60 0 60 0 0 58 c-1 132 -49 221
-148 269 -57 28 -59 28 -284 31 l-228 4 0 -61z"/>
<path d="M7770 2046 c-132 -35 -200 -134 -200 -288 l0 -58 55 0 55 0 0 49 c0
28 5 53 10 56 6 3 10 15 10 25 0 25 65 90 90 90 10 0 22 5 25 10 4 6 85 10
211 10 l204 0 0 60 0 60 -207 -1 c-131 0 -225 -5 -253 -13z"/>
<path d="M8320 2001 l0 -61 195 0 c177 0 198 -2 232 -21 40 -21 83 -66 83 -85
0 -6 7 -17 15 -24 10 -8 15 -30 15 -61 l0 -49 60 0 60 0 0 58 c-1 132 -49 221
-148 269 -57 28 -59 28 -284 31 l-228 4 0 -61z"/>
<path d="M4422 1532 c7 -97 25 -140 82 -195 81 -79 91 -82 349 -85 l227 -4 0
56 0 56 -199 0 c-123 0 -202 4 -206 10 -3 6 -17 10 -30 10 -32 0 -95 63 -95
95 0 13 -4 27 -10 30 -5 3 -10 28 -10 56 l0 49 -56 0 -57 0 5 -78z"/>
<path d="M5710 1561 c0 -31 -5 -53 -15 -61 -8 -7 -15 -21 -15 -31 0 -24 -65
-89 -90 -89 -10 0 -22 -4 -25 -10 -4 -6 -82 -10 -201 -10 l-194 0 0 -56 0 -56
228 4 c257 3 269 6 346 84 58 58 77 102 83 195 l6 79 -62 0 -61 0 0 -49z"/>
<path d="M7572 1532 c7 -97 25 -140 82 -195 81 -79 91 -82 349 -85 l227 -4 0
56 0 56 -199 0 c-123 0 -202 4 -206 10 -3 6 -17 10 -30 10 -32 0 -95 63 -95
95 0 13 -4 27 -10 30 -5 3 -10 28 -10 56 l0 49 -56 0 -57 0 5 -78z"/>
<path d="M8860 1561 c0 -31 -5 -53 -15 -61 -8 -7 -15 -21 -15 -31 0 -24 -65
-89 -90 -89 -10 0 -22 -4 -25 -10 -4 -6 -82 -10 -201 -10 l-194 0 0 -56 0 -56
228 4 c257 3 269 6 346 84 58 58 77 102 83 195 l6 79 -62 0 -61 0 0 -49z"/>
<path d="M100 535 l0 -445 445 0 445 0 0 445 0 445 -445 0 -445 0 0 -445z"/>
<path d="M1080 535 l0 -445 8815 0 8815 0 0 445 0 445 -8815 0 -8815 0 0 -445z"/>
<path d="M18800 535 l0 -445 445 0 445 0 0 445 0 445 -445 0 -445 0 0 -445z"/>
<path d="M19762 15 c-11 -12 -10 -15 3 -15 8 0 15 7 15 15 0 18 -2 18 -18 0z"/>
</g>
</svg>
