<?xml version="1.0" standalone="no"?>
<!DOCTYPE svg PUBLIC "-//W3C//DTD SVG 20010904//EN"
 "http://www.w3.org/TR/2001/REC-SVG-20010904/DTD/svg10.dtd">
<svg version="1.0" xmlns="http://www.w3.org/2000/svg"
 width="1978.000000pt" height="1191.000000pt" viewBox="0 0 1978.000000 1191.000000"
 preserveAspectRatio="xMidYMid meet">

<g transform="translate(0.000000,1191.000000) scale(0.100000,-0.100000)"
fill="#000000" stroke="none">
<path d="M0 5955 l0 -5955 21 0 c19 0 19 1 5 16 -15 14 -16 547 -16 5719 l0
5704 45 48 45 48 0 -307 0 -308 445 0 445 0 0 445 0 445 -315 0 c-237 0 -315
3 -315 12 0 6 10 27 23 45 l22 33 9672 0 c8779 0 9673 -1 9687 -16 15 -14 16
-14 16 5 l0 21 -9890 0 -9890 0 0 -5955z"/>
<path d="M1080 11365 l0 -445 8815 0 8815 0 0 445 0 445 -8815 0 -8815 0 0
-445z"/>
<path d="M18800 11365 l0 -445 445 0 445 0 0 445 0 445 -445 0 -445 0 0 -445z"/>
<path d="M100 5950 l0 -4880 445 0 445 0 0 4880 0 4880 -445 0 -445 0 0 -4880z"/>
<path d="M1080 5950 l0 -4880 586 0 586 0 -63 66 c-35 36 -69 75 -76 87 -10
17 -12 886 -13 3940 0 3383 2 3922 14 3945 8 15 132 144 275 287 l261 260 0
257 0 258 315 0 315 0 0 -248 0 -247 598 -598 597 -597 405 0 405 0 23 48 c37
80 72 92 253 92 136 0 152 -2 182 -21 32 -21 87 -90 87 -109 0 -6 77 -10 205
-10 l205 0 0 35 0 35 240 0 c198 0 240 -2 240 -14 0 -8 10 -16 23 -20 12 -3
68 -52 125 -109 l102 -104 0 -234 0 -234 -125 -124 c-69 -68 -125 -128 -125
-132 0 -5 -108 -9 -240 -9 l-240 0 0 115 0 115 228 0 228 0 52 53 52 53 0 165
0 165 -42 41 -43 42 -441 -6 c-406 -6 -441 -8 -450 -24 -5 -9 -17 -32 -27 -51
-10 -20 -35 -44 -58 -56 -36 -20 -56 -22 -180 -22 -77 0 -147 4 -157 9 -9 5
-29 14 -43 21 -26 12 -35 24 -61 88 l-13 32 -428 0 c-353 0 -433 3 -455 14
-15 8 -297 285 -627 615 l-600 601 -200 0 -200 0 -253 -253 -252 -252 0 -3871
0 -3870 33 -32 33 -32 630 0 629 0 575 576 c316 316 587 582 602 590 23 12
902 14 6550 14 l6523 0 238 238 237 237 0 825 0 825 -117 117 c-117 117 -118
118 -164 118 -46 0 -48 -1 -69 -45 -28 -59 -97 -127 -157 -156 -68 -33 -188
-33 -256 0 -61 29 -128 97 -159 158 -33 68 -33 188 0 256 31 61 98 128 159
159 68 33 188 33 256 0 60 -30 129 -98 157 -157 l22 -45 72 0 c91 0 101 -6
289 -197 l137 -140 0 -894 0 -894 -288 -287 -287 -288 -6535 0 -6535 0 -585
-585 -585 -585 90 0 90 0 525 525 525 525 6510 2 6510 3 53 24 c44 20 99 72
327 307 251 259 275 287 289 335 14 46 16 164 16 919 0 762 -2 873 -16 920
-14 47 -32 70 -171 211 -187 190 -212 209 -290 216 -56 5 -59 7 -92 54 -83
121 -266 195 -413 169 -143 -26 -253 -108 -323 -241 -39 -73 -39 -75 -39 -184
0 -109 0 -111 39 -184 72 -135 180 -215 327 -240 121 -21 276 28 362 114 67
68 83 68 144 -3 l52 -60 0 -777 0 -777 -191 -199 -191 -199 -6512 0 c-4662 0
-6522 -3 -6551 -11 -34 -9 -124 -95 -620 -590 l-581 -579 -577 0 -577 0 0
1884 0 1885 22 15 c22 15 25 14 80 -41 l58 -57 0 -303 0 -303 425 0 425 0 0
430 0 430 -303 0 -302 0 -103 103 -102 102 0 537 0 536 25 6 c20 5 36 -2 77
-35 29 -22 79 -55 112 -72 57 -28 69 -31 166 -31 70 0 113 4 129 13 23 13 47
-10 845 -807 451 -451 837 -828 856 -838 34 -18 96 -19 1492 -22 l1456 -2 7
-29 c4 -20 1 -38 -10 -55 l-17 -26 -1622 0 c-1135 0 -1633 -3 -1661 -11 -34
-9 -109 -80 -501 -470 -456 -455 -461 -460 -488 -448 -15 7 -25 18 -22 26 4
10 -13 13 -77 13 l-82 0 -23 -49 c-27 -60 -97 -133 -152 -158 l-39 -18 -1 -77
c0 -44 4 -78 10 -78 5 0 16 -13 24 -29 14 -27 14 -29 -14 -56 -28 -27 -36 -29
-123 -30 -87 -2 -98 -4 -167 -41 -132 -69 -214 -179 -240 -321 -21 -121 28
-270 119 -361 26 -26 81 -65 122 -87 73 -39 75 -39 184 -39 109 0 111 0 184
39 132 70 215 179 240 319 13 71 0 165 -34 242 l-23 51 617 617 616 616 2225
0 c1566 0 2237 3 2265 11 33 9 84 55 306 277 231 231 268 272 273 304 l7 38
79 0 79 0 3 -300 c3 -272 5 -301 21 -317 16 -16 42 -18 241 -21 l223 -3 12
-27 c12 -25 10 -29 -41 -74 l-53 -47 -2816 -1 c-2535 0 -2821 -2 -2870 -16
-48 -14 -68 -29 -175 -137 -94 -94 -124 -131 -133 -162 -7 -26 -11 -169 -11
-405 l0 -365 -459 -459 -459 -459 -49 35 c-26 20 -73 48 -103 64 -50 25 -64
28 -165 28 -109 0 -111 0 -184 -39 -41 -22 -96 -61 -122 -87 -91 -91 -140
-240 -119 -360 26 -143 108 -253 241 -323 73 -39 75 -39 184 -39 101 0 115 3
165 28 122 63 196 140 236 246 14 37 115 143 594 625 479 481 579 586 584 614
3 18 6 198 6 400 l0 367 48 47 48 47 2824 0 c1944 0 2837 3 2863 11 28 7 79
49 196 160 l159 149 589 0 590 0 12 -26 c9 -21 8 -33 -10 -72 -11 -26 -23 -79
-26 -119 l-6 -73 77 0 76 0 0 30 c0 39 32 88 81 122 37 27 45 28 153 28 89 0
116 -3 126 -15 20 -24 32 -18 90 40 l55 56 -4 359 -3 360 54 0 55 0 6 -217 c4
-120 7 -292 7 -382 l0 -163 -80 -82 -80 -82 0 -142 c0 -78 -4 -150 -9 -160 -5
-9 -14 -29 -21 -43 -7 -15 -23 -32 -36 -38 -81 -37 -74 -28 -74 -109 l0 -75
57 7 c66 8 165 57 193 97 30 41 62 44 112 12 l42 -28 185 0 c211 0 227 5 279
79 27 39 27 42 30 219 6 258 2 276 -61 340 -29 29 -77 84 -108 122 l-57 70 -3
171 c-4 169 -4 171 -33 212 -16 23 -33 42 -37 42 -5 0 -9 56 -9 125 l0 126
178 -5 c97 -3 294 -8 437 -11 l260 -6 66 -65 66 -66 5 -73 c4 -55 11 -84 31
-118 40 -67 36 -95 -18 -140 -55 -47 -83 -98 -91 -171 l-7 -56 74 0 74 0 23
48 c37 80 72 92 253 92 136 0 152 -2 182 -21 32 -21 87 -90 87 -109 0 -6 38
-10 91 -10 l92 0 -7 56 c-8 73 -36 124 -91 171 -54 45 -57 68 -17 144 25 49
27 64 30 185 l4 132 58 57 57 57 229 1 c222 2 231 3 277 26 26 14 47 28 47 31
0 3 6 14 13 24 11 15 17 16 40 5 l27 -12 0 -435 0 -434 -486 -494 -486 -494
-2399 0 -2399 0 0 78 c0 139 -37 214 -131 263 -42 22 -60 23 -334 32 -159 4
-1082 6 -2050 4 -1973 -5 -1825 1 -1904 -78 -63 -63 -73 -112 -69 -327 3 -174
4 -178 32 -229 33 -60 81 -97 146 -113 31 -7 194 -10 511 -8 l465 3 59 31 c50
26 63 39 89 89 28 53 31 69 35 167 l3 108 903 0 903 0 4 -113 c4 -125 22 -174
81 -229 61 -55 87 -58 581 -58 336 0 460 3 486 13 28 9 577 13 2565 17 l2530
5 45 27 c25 15 289 271 597 580 471 472 553 559 562 593 6 22 11 99 11 171 0
127 1 131 26 155 22 20 34 23 80 21 l54 -4 0 81 0 81 -35 0 c-19 0 -43 4 -53
9 -9 5 -29 14 -43 21 -15 7 -32 24 -39 39 -7 14 -16 34 -21 43 -5 10 -9 65 -9
122 0 125 18 171 82 205 36 19 56 21 189 21 136 0 152 -2 182 -21 32 -21 87
-90 87 -109 0 -6 38 -10 91 -10 l92 0 -7 56 c-8 73 -36 124 -91 171 -54 44
-57 68 -19 140 14 27 28 75 31 107 4 42 11 60 25 67 16 9 34 -3 119 -81 l99
-92 0 -352 c0 -292 3 -362 16 -407 15 -51 33 -71 345 -384 l329 -330 0 -188 0
-187 430 0 430 0 0 425 0 425 -418 0 -417 0 -182 183 -182 182 -3 381 -3 380
-26 40 c-14 21 -383 398 -818 836 -706 710 -791 799 -782 817 10 18 24 20 233
23 197 3 227 5 258 22 43 23 152 126 192 181 l29 40 182 0 c170 0 184 1 217
22 58 36 74 74 78 191 l4 102 162 0 161 0 277 -277 277 -277 -18 -25 c-10 -14
-31 -51 -47 -81 -26 -51 -28 -64 -28 -165 0 -107 1 -112 37 -180 72 -140 176
-217 328 -244 108 -18 240 16 324 84 l42 35 232 0 231 0 0 2015 0 2015 -1085
0 -1085 0 0 -230 0 -230 -205 0 -205 0 0 -125 0 -125 205 0 205 0 0 -350 0
-350 -550 0 -550 0 0 350 0 350 210 0 210 0 0 125 0 125 -210 0 -210 0 0 125
0 125 -300 0 -300 0 0 -125 0 -125 -550 0 -550 0 0 130 0 130 -75 0 -75 0 0
-210 0 -210 24 0 c57 0 56 3 56 -201 l0 -189 -26 0 c-20 0 -62 33 -175 141
l-149 141 0 109 0 109 -250 0 -250 0 0 29 c0 65 -14 93 -92 180 -95 108 -136
131 -231 131 -53 0 -67 3 -67 15 0 13 -40 15 -300 15 l-300 0 0 -190 0 -191
316 1 c274 1 318 -1 340 -14 l24 -16 0 -182 c0 -231 -2 -226 171 -389 l129
-121 0 -127 0 -126 -35 -19 c-20 -11 -45 -36 -58 -55 -21 -34 -22 -49 -25
-246 -3 -190 -5 -212 -23 -237 -17 -23 -28 -28 -64 -28 -72 0 -76 12 -78 251
-2 202 -2 204 -29 250 -47 80 -59 84 -243 84 -180 0 -206 -8 -248 -75 -21 -33
-22 -46 -22 -266 l0 -231 28 -36 c26 -35 27 -40 27 -161 l0 -126 -309 0 -309
0 -12 29 c-10 25 -8 35 10 71 14 27 24 70 27 116 l6 74 -92 0 -91 0 0 -35 c0
-19 -4 -43 -9 -53 -5 -9 -14 -29 -21 -43 -7 -15 -24 -32 -39 -39 -14 -7 -34
-16 -43 -21 -10 -5 -34 -9 -53 -9 l-36 0 7 -217 c4 -120 11 -226 15 -235 5 -9
9 -95 9 -190 l0 -173 478 -478 477 -477 994 0 994 0 117 -115 116 -115 152 0
c172 0 191 -6 245 -81 25 -37 27 -45 27 -149 0 -60 -4 -112 -10 -115 -5 -3
-16 -21 -25 -39 -9 -19 -32 -41 -56 -54 -36 -20 -56 -22 -180 -22 -77 0 -147
4 -157 9 -9 5 -29 14 -43 21 -15 7 -32 24 -39 39 -7 14 -16 34 -21 43 -12 24
-11 235 1 243 24 15 4 46 -83 133 l-92 92 -985 0 c-542 0 -994 3 -1005 7 -11
4 -242 231 -514 504 -489 492 -493 497 -498 543 -3 25 -10 46 -14 46 -5 0 -9
137 -9 305 0 264 2 305 15 305 12 0 15 16 15 85 l0 85 -30 0 c-17 0 -38 4 -48
9 -9 5 -29 14 -43 21 -15 7 -32 24 -39 39 -7 14 -16 34 -21 43 -5 10 -9 83 -9
163 0 131 2 148 21 178 28 41 92 87 124 87 25 0 25 1 25 86 l0 87 -62 -7 c-70
-7 -156 -52 -189 -98 -25 -35 -74 -46 -100 -22 -41 37 -28 57 152 245 l171
178 611 5 c337 3 669 8 740 11 l127 6 0 194 0 193 -132 7 c-73 4 -437 8 -808
9 l-675 1 -53 -24 c-44 -20 -96 -69 -307 -287 -285 -295 -285 -295 -285 -442
0 -72 -1 -75 -39 -118 -41 -47 -51 -77 -51 -155 l0 -49 -564 0 -565 0 -15 22
c-9 12 -16 37 -16 55 0 25 6 36 28 47 52 27 99 108 108 190 l7 56 -89 0 c-78
0 -91 -2 -99 -19 -6 -11 -18 -34 -28 -53 -10 -20 -35 -44 -58 -56 -36 -20 -56
-22 -180 -22 -77 0 -147 4 -157 9 -9 5 -29 14 -43 21 -26 12 -35 24 -61 88
l-13 32 -74 0 -74 0 7 -57 c8 -72 51 -150 99 -182 41 -27 47 -56 21 -96 l-16
-25 -302 0 c-236 -1 -310 -4 -341 -15 -25 -9 -79 -15 -142 -15 l-103 0 0 -189
0 -190 118 -5 c64 -4 265 -9 445 -12 l328 -5 11 -25 c7 -14 35 -38 62 -52 50
-27 54 -27 251 -27 197 0 201 0 250 27 28 14 56 36 63 47 12 20 20 21 187 21
l175 0 0 -582 0 -583 -97 -97 c-96 -97 -96 -97 -124 -82 -24 12 -28 19 -22 44
l6 30 -89 0 c-78 0 -91 -2 -99 -19 -6 -11 -18 -34 -28 -53 -10 -20 -35 -44
-58 -56 -36 -20 -56 -22 -180 -22 -77 0 -147 4 -157 9 -9 5 -29 14 -43 21 -26
12 -35 24 -61 88 l-13 32 -74 0 -74 0 7 -57 c8 -72 50 -148 104 -189 22 -18
46 -34 52 -36 7 -2 9 -14 5 -31 l-7 -27 -1325 0 -1325 0 -933 925 c-698 692
-944 930 -976 945 -31 14 -66 20 -116 20 -70 0 -73 1 -87 29 -14 26 -14 30 10
62 32 42 79 135 88 172 l6 27 -82 0 -83 0 -23 -49 c-28 -62 -97 -132 -159
-162 -38 -19 -65 -24 -128 -24 -96 0 -152 23 -219 91 -68 67 -91 123 -91 219
0 96 23 152 91 219 67 68 123 91 219 91 64 0 90 -5 128 -23 60 -30 129 -98
157 -157 l22 -45 84 0 84 0 -6 28 c-4 15 -14 43 -22 62 -13 32 -13 35 9 53
l22 18 451 -449 c414 -412 454 -450 491 -456 22 -3 226 -6 452 -6 l412 0 16
-30 c27 -52 20 -82 -30 -123 -55 -47 -83 -98 -91 -171 l-7 -56 74 0 74 0 23
48 c36 77 74 92 230 92 l125 0 61 58 c34 31 75 65 91 75 17 9 45 28 64 42 33
24 39 25 197 25 103 0 164 4 164 10 0 6 87 10 240 10 l240 0 0 -115 0 -115
-240 0 c-153 0 -240 4 -240 10 0 6 -53 10 -138 10 -128 0 -140 -2 -158 -21
-10 -12 -32 -28 -49 -36 -48 -24 -73 -52 -68 -74 5 -17 15 -19 93 -19 69 0 89
3 94 15 3 9 19 15 41 15 31 0 35 -3 35 -25 0 -22 4 -25 40 -25 l40 0 0 -144 0
-144 148 -7 c261 -12 414 -11 461 3 33 10 68 37 147 113 56 55 115 119 131
141 l28 41 0 266 c0 146 -3 278 -8 293 -11 41 -192 225 -252 256 -49 26 -55
27 -210 26 -230 -3 -445 -14 -445 -25 0 -5 -61 -9 -135 -9 l-135 0 -12 26 c-7
14 -34 37 -62 52 -50 27 -54 27 -251 27 -197 0 -201 0 -251 -27 -28 -15 -55
-38 -62 -52 l-12 -26 -362 0 -363 0 -483 483 c-477 477 -483 484 -471 510 l12
27 299 0 298 0 0 605 0 605 -1550 0 -1550 0 0 -4880z m11020 4385 l0 -45 97 0
98 0 77 -77 78 -78 0 -215 0 -215 150 -150 150 -150 0 -202 0 -203 23 0 c15 0
42 -18 70 -46 l47 -46 0 -156 c0 -186 -11 -222 -74 -253 -55 -26 -177 -26
-232 0 -63 31 -74 67 -74 253 l0 156 47 46 c39 39 52 46 85 46 l38 0 0 187 0
187 -150 151 -150 151 0 215 0 215 -58 57 -58 57 -82 0 -82 0 0 -40 0 -40
-225 0 -225 0 0 120 0 120 225 0 225 0 0 -45z m890 -451 l0 -116 156 -164 156
-164 94 0 94 0 0 215 0 215 550 0 550 0 0 -350 0 -350 -550 0 -550 0 0 40 0
40 -120 0 c-85 0 -129 4 -149 14 -15 8 -110 100 -210 205 l-183 191 -44 0
c-31 0 -50 6 -64 20 -23 23 -24 33 -10 61 10 18 7 19 -80 19 l-90 0 0 120 0
120 225 0 225 0 0 -116z m-890 -374 l0 -120 -225 0 c-143 0 -225 4 -225 10 0
7 -173 10 -498 10 l-497 0 -208 -208 -207 -207 0 -88 0 -87 39 -28 c74 -52 81
-73 81 -234 l0 -142 146 -148 147 -147 -8 -308 c-4 -196 -11 -310 -18 -315
-16 -10 -1 -114 22 -151 11 -17 249 -260 528 -539 433 -431 514 -508 548 -517
27 -7 237 -11 628 -11 l587 0 0 -500 0 -500 -40 0 -40 0 0 -60 0 -60 39 0 c22
0 41 -4 43 -9 2 -6 192 -12 453 -16 248 -3 461 -8 474 -11 14 -3 57 -37 96
-75 l73 -70 36 20 c32 19 54 21 189 21 l152 0 142 142 143 143 0 63 c0 87 18
126 71 151 38 19 62 21 210 21 189 0 218 -9 258 -76 30 -50 30 -221 1 -289
-29 -68 -52 -75 -265 -75 -181 0 -232 9 -252 44 -7 13 -29 -5 -118 -94 -104
-104 -108 -110 -92 -128 14 -15 17 -39 17 -130 0 -61 -4 -114 -10 -117 -5 -3
-16 -21 -25 -39 -9 -19 -32 -41 -56 -54 -36 -20 -56 -22 -180 -22 -77 0 -147
4 -157 9 -9 5 -29 14 -43 21 -15 7 -32 24 -39 39 -7 14 -16 34 -21 43 -5 10
-9 57 -9 105 l0 88 -77 77 -78 78 -252 0 c-218 0 -253 -2 -253 -15 0 -13 -32
-15 -231 -15 -186 0 -233 -3 -245 -14 -21 -21 -20 -392 1 -420 12 -16 15 -56
15 -195 l0 -174 60 -63 c33 -34 60 -71 60 -81 0 -10 19 -31 44 -48 79 -54 86
-74 86 -240 0 -80 -4 -153 -9 -163 -5 -9 -14 -29 -21 -43 -7 -15 -24 -32 -39
-39 -14 -7 -34 -16 -43 -21 -10 -5 -63 -9 -118 -9 -55 0 -108 4 -118 9 -9 5
-29 14 -43 21 -15 7 -32 24 -39 39 -7 14 -16 34 -21 43 -5 10 -9 83 -9 163 0
166 7 186 86 240 l43 30 -33 35 c-63 65 -61 52 -64 458 -2 216 -8 372 -13 372
-5 0 -9 18 -9 40 l0 40 -60 0 -60 0 0 -40 0 -40 -1045 0 -1045 0 0 -125 c0
-99 -4 -133 -17 -158 -11 -21 -18 -64 -21 -130 l-4 -97 -269 0 -269 0 0 285 0
285 265 0 265 0 0 1200 0 1200 50 0 50 0 0 230 c0 147 4 230 10 230 6 0 10 53
10 138 l0 137 -112 112 c-101 100 -116 111 -141 106 -15 -3 -30 -9 -33 -14 -7
-12 -209 -12 -232 0 -9 4 -31 16 -49 25 -26 14 -70 16 -294 16 l-263 0 -63
-62 -63 -62 0 -626 0 -625 -293 -292 -293 -293 -1679 2 -1680 3 -940 943 -940
942 -325 0 -325 0 -167 -167 -168 -168 0 -1245 0 -1245 132 -132 133 -133 272
0 273 0 0 -315 0 -315 -315 0 -315 0 0 277 0 278 -142 143 -143 142 0 1300 0
1300 193 192 192 193 377 3 377 3 946 -946 945 -945 1625 0 1625 0 262 263
263 262 2 627 3 627 34 35 35 36 -303 0 c-335 0 -311 5 -346 -66 -9 -17 -34
-40 -56 -52 -36 -20 -56 -22 -180 -22 -77 0 -147 4 -157 9 -9 5 -29 14 -43 21
-26 12 -35 24 -61 88 l-13 32 -192 0 c-122 0 -193 -4 -193 -10 0 -6 -87 -10
-240 -10 l-240 0 0 115 0 115 240 0 c157 0 240 -4 240 -10 0 -7 68 -9 197 -8
l197 3 19 36 c35 66 76 79 248 79 171 0 190 -7 244 -86 l30 -44 633 0 632 0 0
90 c0 75 4 96 21 123 24 36 91 87 114 87 12 0 15 19 15 111 0 61 5 120 11 132
13 25 484 505 514 524 15 9 147 12 548 13 462 0 527 2 527 15 0 13 32 15 225
15 l225 0 0 -120z m5673 -354 c106 -32 199 -134 219 -243 50 -270 -254 -472
-479 -317 -57 39 -119 122 -129 172 l-6 32 -1517 0 -1516 0 -250 -251 c-138
-138 -262 -257 -277 -265 -23 -12 -147 -14 -794 -14 -700 0 -769 -1 -786 -17
-16 -14 -18 -34 -18 -167 0 -83 -3 -249 -7 -368 l-6 -218 -54 0 -53 0 1 288
c0 158 4 336 8 395 l7 108 42 42 42 42 783 3 782 2 263 263 262 262 1544 3
1544 2 6 33 c9 47 69 129 122 167 81 57 175 74 267 46z m-5640 -202 l47 -46 0
-157 c0 -187 -12 -225 -77 -254 -22 -9 -47 -17 -56 -17 -15 0 -17 -25 -17
-272 0 -150 -3 -371 -7 -490 l-6 -218 -55 0 -55 0 7 489 7 489 -42 18 c-68 31
-79 67 -79 255 l0 157 47 46 46 46 97 0 97 0 46 -46z m3459 -379 c21 -18 41
-25 71 -25 38 0 47 -6 134 -93 l93 -93 0 -468 c0 -381 -3 -472 -14 -494 -8
-15 -46 -57 -84 -94 l-70 -68 -981 0 -980 0 -37 -25 -37 -25 -338 0 -339 0 0
55 0 55 322 0 c320 0 322 0 346 23 l24 22 986 3 987 2 52 52 53 52 0 431 0
431 -60 59 -60 59 0 -120 c0 -192 -34 -234 -190 -234 -97 0 -145 21 -171 74
-16 34 -19 63 -19 197 l0 157 47 46 46 46 95 0 c86 0 97 -2 124 -25z m721 -21
c43 -42 47 -50 47 -95 l0 -49 522 0 521 0 121 -119 121 -119 62 -5 c78 -6 140
-36 197 -93 68 -67 91 -123 91 -219 0 -96 -23 -152 -91 -219 -67 -68 -123 -91
-219 -91 -96 0 -152 23 -219 91 -110 110 -126 264 -40 391 19 28 51 62 69 75
l35 23 -88 88 -87 87 -497 0 -498 0 0 -53 c0 -118 -56 -167 -190 -167 -97 0
-145 21 -171 74 -16 34 -19 63 -19 197 l0 157 47 46 46 46 97 0 97 0 46 -46z
m-13219 -414 c60 -28 128 -97 157 -157 34 -68 33 -188 0 -257 l-24 -48 884
-884 884 -884 1410 0 1410 1 49 49 49 50 97 0 97 0 46 -46 47 -46 0 -157 c0
-134 -3 -163 -19 -197 -26 -53 -74 -74 -171 -74 -150 0 -190 45 -190 212 l0
98 -1440 2 -1440 3 -897 896 -898 897 -50 -27 c-68 -36 -186 -37 -258 -2 -178
87 -239 299 -131 457 39 58 107 110 168 130 58 20 163 12 220 -16z m7936 -335
l0 -305 -55 0 -55 0 0 305 0 305 55 0 55 0 0 -305z m200 0 l0 -305 -55 0 -55
0 0 305 0 305 55 0 55 0 0 -305z m190 0 l0 -305 -55 0 -55 0 0 305 0 305 55 0
55 0 0 -305z m200 0 l0 -305 -55 0 -55 0 0 305 0 305 55 0 55 0 0 -305z m200
0 l0 -305 -55 0 -55 0 0 305 0 305 55 0 55 0 0 -305z m590 0 l0 -305 -55 0
-55 0 0 305 0 305 55 0 55 0 0 -305z m200 0 l0 -305 -55 0 -55 0 0 305 0 305
55 0 55 0 0 -305z m190 180 l0 -125 1243 0 1242 1 49 49 49 50 97 0 97 0 46
-46 47 -46 0 -156 c0 -186 -11 -222 -74 -253 -55 -26 -177 -26 -232 0 -57 28
-74 73 -74 194 l0 97 -1245 0 -1245 0 0 -125 0 -125 -55 0 -55 0 0 305 0 305
55 0 55 0 0 -125z m3512 -50 l30 -25 276 0 276 0 371 -369 370 -369 67 -5 c82
-6 143 -34 202 -93 68 -67 91 -123 91 -219 0 -96 -23 -152 -91 -219 -67 -68
-123 -91 -219 -91 -96 0 -152 23 -219 91 -68 67 -91 123 -91 219 0 98 24 153
96 224 l48 47 -337 337 -337 337 -233 0 -232 0 0 -123 c0 -195 -34 -237 -190
-237 -97 0 -145 21 -171 74 -16 34 -19 63 -19 197 l0 157 47 46 46 46 95 0
c86 0 97 -2 124 -25z m-2872 -409 l0 -103 -77 -5 c-53 -3 -92 -12 -120 -26
-37 -19 -59 -22 -173 -22 l-130 0 0 -370 0 -370 -543 0 -542 0 -374 374 c-344
344 -372 375 -362 395 l12 21 879 0 880 0 0 105 0 105 275 0 275 0 0 -104z
m-3120 -281 l0 -55 -305 0 -305 0 0 55 0 55 305 0 305 0 0 -55z m-7226 -105
c60 -28 128 -97 157 -157 34 -68 33 -188 0 -257 l-24 -48 834 -834 834 -834
1462 0 1463 0 0 54 c0 51 3 57 47 100 l46 46 97 0 97 0 46 -46 47 -46 0 -157
c0 -187 -12 -225 -77 -254 -53 -23 -173 -23 -226 0 -48 22 -77 76 -77 145 l0
48 -1490 2 -1490 3 -847 846 -848 847 -50 -27 c-68 -36 -186 -37 -258 -2 -178
87 -239 299 -131 457 39 58 107 110 168 130 58 20 163 12 220 -16z m12631
-685 c385 -387 784 -791 888 -898 l187 -194 0 -384 0 -384 285 -285 285 -285
0 73 0 72 315 0 315 0 0 -315 0 -315 -315 0 -315 0 0 162 0 163 -337 337 -338
338 -3 388 -3 388 -174 174 c-96 96 -175 179 -175 185 0 5 -307 317 -682 692
l-683 683 -564 0 -563 0 -35 -30 -34 -30 -384 0 -385 0 0 55 0 55 364 0 365 0
18 23 c10 13 25 26 33 30 8 3 289 6 625 6 l610 1 700 -705z m-5405 590 l0 -55
-305 0 -305 0 0 55 0 55 305 0 305 0 0 -55z m4043 -116 c17 -12 44 -39 60 -60
22 -33 27 -50 27 -102 l0 -62 232 -232 233 -233 117 0 c133 0 170 -14 207 -76
30 -50 30 -221 1 -289 -29 -68 -52 -75 -265 -75 -264 0 -275 9 -275 215 0 126
13 175 50 195 22 12 15 20 -151 186 -168 168 -175 174 -190 155 -9 -11 -33
-29 -53 -40 -32 -18 -54 -21 -176 -21 -77 0 -148 4 -158 9 -9 5 -29 14 -43 21
-15 7 -32 24 -39 39 -24 50 -28 56 -42 51 -7 -3 -210 -6 -450 -8 l-438 -2 0
55 0 55 412 0 412 0 38 37 c21 21 38 47 38 59 0 38 41 101 79 122 31 18 55 20
189 21 139 1 155 -1 185 -20z m-4043 -84 l0 -55 -305 0 -305 0 0 55 0 55 305
0 305 0 0 -55z m3300 0 l0 -55 -305 0 -305 0 0 55 0 55 305 0 305 0 0 -55z
m-3300 -190 l0 -55 -305 0 -305 0 0 55 0 55 305 0 305 0 0 -55z m0 -200 l0
-55 -305 0 -305 0 0 55 0 55 305 0 305 0 0 -55z m0 -200 l0 -55 -487 0 -488 0
-222 -222 -223 -223 0 -76 c0 -142 -47 -189 -190 -189 -97 0 -145 21 -171 74
-16 34 -19 63 -19 197 l0 157 47 46 46 46 97 0 97 0 47 -47 47 -46 192 190
c106 105 199 193 207 196 8 3 241 6 518 6 l502 1 0 -55z m3300 45 c0 -5 10
-10 22 -10 15 0 50 -27 100 -77 l78 -78 0 -199 c0 -172 2 -202 17 -218 15 -17
52 -18 762 -18 l746 0 85 -85 85 -85 87 0 88 0 0 34 c0 51 36 110 82 135 36
19 56 21 189 21 169 0 189 -7 242 -81 25 -37 27 -45 27 -149 0 -60 -4 -112
-10 -115 -5 -3 -16 -21 -25 -39 -9 -19 -32 -41 -56 -54 -37 -20 -56 -22 -184
-22 -79 0 -146 4 -149 9 -3 5 -18 11 -33 14 -24 5 -37 -4 -95 -61 l-68 -66 0
-509 c0 -422 -2 -513 -14 -535 -8 -15 -259 -271 -558 -569 l-543 -543 -2508 0
-2508 0 -33 -25 c-18 -14 -40 -25 -49 -25 -9 0 -19 -5 -22 -10 -8 -14 -882
-14 -890 0 -3 6 -17 10 -30 10 -31 0 -95 63 -95 93 0 13 -5 28 -11 34 -6 6 -9
63 -7 157 l3 146 -990 0 -990 0 3 -148 c2 -125 0 -151 -13 -162 -8 -7 -15 -21
-15 -31 0 -24 -65 -89 -90 -89 -10 0 -22 -5 -25 -10 -8 -14 -882 -14 -890 0
-3 6 -17 10 -30 10 -32 0 -95 63 -95 95 0 13 -4 27 -10 30 -13 8 -13 292 0
300 6 3 10 15 10 25 0 25 65 90 90 90 10 0 22 4 25 10 8 14 902 14 910 0 9
-14 2231 -14 2240 0 4 6 165 10 450 10 430 0 446 -1 482 -21 40 -21 83 -66 83
-85 0 -6 7 -17 15 -24 12 -10 15 -39 15 -141 l0 -129 2463 0 2462 0 527 528
528 527 2 522 3 523 93 92 c78 79 92 98 92 126 l0 32 -101 0 -102 0 -86 85
-87 85 -743 0 -743 0 -39 39 -39 39 0 199 0 199 -61 59 c-38 37 -63 55 -66 48
-4 -10 -75 -13 -309 -13 l-304 0 0 55 0 55 305 0 c197 0 305 -4 305 -10z
m-3300 -235 l0 -55 -322 0 -323 0 -217 -217 -218 -218 0 -59 0 -60 -170 -171
-170 -171 0 -154 c0 -183 -11 -220 -74 -251 -55 -26 -177 -26 -232 0 -63 31
-74 67 -74 253 l0 156 47 47 48 46 108 -2 108 -3 149 149 148 148 4 64 4 64
235 235 c128 130 243 239 254 244 11 5 172 9 358 9 l337 1 0 -55z m3300 0 l0
-55 -305 0 -305 0 0 55 0 55 305 0 305 0 0 -55z m-3300 -200 l0 -55 -305 0
-305 0 0 55 0 55 305 0 305 0 0 -55z m3300 0 l0 -55 -305 0 -305 0 0 55 0 55
305 0 305 0 0 -55z m-3300 -200 l0 -55 -305 0 -305 0 0 55 0 55 305 0 305 0 0
-55z m3300 0 l0 -55 -305 0 -305 0 0 55 0 55 305 0 305 0 0 -55z m-3300 -200
l0 -55 -342 0 -342 0 -53 -52 -53 -52 0 -185 0 -186 -248 -247 -247 -248
-2255 0 -2255 0 -674 -674 -674 -674 41 -57 c163 -227 -35 -538 -311 -487
-155 29 -270 182 -254 338 11 103 85 207 182 254 55 27 146 36 200 21 l40 -11
698 698 697 697 2258 3 2257 2 217 217 217 217 3 190 3 191 73 70 c41 39 81
73 90 77 9 4 178 7 375 7 l357 1 0 -55z m3300 0 l0 -55 -305 0 -305 0 0 55 0
55 305 0 305 0 0 -55z m-3300 -190 l0 -55 -305 0 -305 0 0 55 0 55 305 0 305
0 0 -55z m3300 0 l0 -55 -305 0 -305 0 0 55 0 55 305 0 305 0 0 -55z m-3300
-200 l0 -55 -305 0 -305 0 0 55 0 55 305 0 305 0 0 -55z m324 -507 c9 -294 4
-358 -27 -358 -14 0 -72 -50 -162 -140 l-142 -140 -2854 0 -2854 0 -82 -82
-83 -83 0 -395 0 -395 -584 -585 c-496 -497 -585 -590 -590 -620 -9 -52 -70
-134 -129 -174 -141 -97 -332 -59 -431 87 -86 127 -70 281 40 391 145 145 366
120 483 -54 l38 -58 531 532 532 531 2 397 3 398 108 107 107 108 2857 3 2858
2 132 132 133 133 0 257 0 258 54 0 53 0 7 -252z m186 -53 l0 -305 -55 0 -55
0 0 305 0 305 55 0 55 0 0 -305z m200 0 l0 -305 -55 0 -55 0 0 305 0 305 55 0
55 0 0 -305z m200 0 l0 -305 -55 0 -55 0 0 305 0 305 55 0 55 0 0 -305z m190
0 l0 -305 -55 0 -55 0 0 305 0 305 55 0 55 0 0 -305z m200 0 l0 -305 -55 0
-55 0 0 305 0 305 55 0 55 0 0 -305z m200 0 l0 -305 -55 0 -55 0 0 305 0 305
55 0 55 0 0 -305z m200 0 l0 -305 -55 0 -55 0 0 305 0 305 55 0 55 0 0 -305z
m190 0 l0 -305 -55 0 -55 0 0 305 0 305 55 0 55 0 0 -305z m200 0 l0 -305 -55
0 -55 0 0 305 0 305 55 0 55 0 0 -305z"/>
<path d="M13340 10690 l0 -140 75 0 75 0 0 135 0 135 550 0 550 0 0 -130 0
-130 300 0 300 0 0 130 0 130 550 0 550 0 0 -25 0 -25 1140 0 c862 0 1145 -3
1165 -12 59 -27 55 115 55 -2138 l0 -2070 30 0 30 0 0 2140 0 2140 -2685 0
-2685 0 0 -140z"/>
<path d="M18800 5950 l0 -4880 445 0 445 0 0 4880 0 4880 -445 0 -445 0 0
-4880z"/>
<path d="M8105 9473 c-44 -22 -124 -102 -146 -145 -11 -21 -22 -65 -26 -98
l-6 -60 82 0 c63 0 81 3 81 14 0 8 10 32 21 54 27 49 84 82 145 82 l44 0 0 85
0 85 -82 0 c-55 -1 -93 -6 -113 -17z"/>
<path d="M8450 9405 l0 -85 30 0 c17 0 45 -10 63 -21 36 -24 87 -91 87 -114 0
-12 18 -15 96 -15 l97 0 -6 60 c-8 76 -32 123 -94 181 -69 67 -98 79 -193 79
l-80 0 0 -85z"/>
<path d="M10880 8911 c0 -53 4 -91 10 -91 19 0 88 -55 109 -87 11 -18 21 -49
21 -68 l0 -35 96 0 97 0 -6 79 c-11 166 -109 271 -267 288 l-60 6 0 -92z"/>
<path d="M8180 8011 c-65 -21 -109 -52 -132 -93 l-23 -43 -438 4 -437 4 0
-198 0 -198 440 6 439 6 21 -33 c32 -53 27 -83 -25 -128 -58 -51 -84 -101 -92
-178 l-6 -60 82 0 c63 0 81 3 81 14 0 33 44 95 82 115 36 19 56 21 189 21 136
0 152 -2 182 -21 36 -24 87 -91 87 -114 0 -12 18 -15 96 -15 l97 0 -6 60 c-8
77 -34 127 -92 178 -54 47 -56 68 -17 143 26 52 27 58 27 214 0 155 -1 161
-28 212 -22 42 -38 58 -80 80 -51 27 -56 28 -237 30 -102 1 -196 -2 -210 -6z
m363 -112 c17 -12 44 -39 60 -60 25 -37 27 -45 27 -149 0 -60 -4 -112 -10
-115 -5 -3 -16 -21 -25 -39 -9 -19 -32 -41 -56 -54 -36 -20 -56 -22 -180 -22
-77 0 -147 4 -157 9 -9 5 -29 14 -43 21 -15 7 -32 24 -39 39 -7 14 -16 34 -21
43 -5 10 -9 27 -9 38 0 19 -6 20 -195 20 l-195 0 0 -30 0 -30 -240 0 -240 0 0
115 0 115 240 0 240 0 0 -30 0 -30 195 0 195 0 0 29 c0 44 38 106 79 129 31
18 55 20 189 21 139 1 155 -1 185 -20z"/>
<path d="M5134 7589 c15 -152 127 -255 288 -266 l78 -6 0 87 0 86 -40 0 c-22
0 -48 4 -58 9 -9 5 -29 14 -43 21 -15 7 -32 24 -39 39 -7 14 -16 34 -21 43 -5
10 -9 25 -9 33 0 12 -15 15 -81 15 l-82 0 7 -61z"/>
<path d="M5830 7631 c0 -11 -4 -23 -10 -26 -5 -3 -16 -21 -25 -39 -17 -36 -81
-76 -121 -76 -23 0 -24 -2 -24 -86 l0 -87 79 6 c95 6 165 39 216 102 48 59 65
97 72 165 l6 60 -97 0 c-88 0 -96 -2 -96 -19z"/>
<path d="M17570 6321 c-91 -28 -206 -106 -260 -176 -33 -43 -90 -174 -90 -207
0 -4 36 -8 79 -8 74 0 80 2 86 23 22 74 136 185 208 203 27 6 27 7 27 90 0 89
-1 90 -50 75z"/>
<path d="M17770 6247 l0 -85 45 -22 c60 -29 129 -100 157 -161 l23 -49 82 0
c82 0 83 0 83 25 0 49 -67 171 -129 233 -57 58 -162 120 -233 137 l-28 7 0
-85z"/>
<path d="M17220 5772 c0 -32 56 -163 87 -204 61 -80 217 -178 283 -178 l30 0
0 79 c0 78 0 79 -27 85 -72 18 -186 129 -208 204 -6 20 -12 22 -86 22 -43 0
-79 -4 -79 -8z"/>
<path d="M17972 5731 c-28 -61 -97 -132 -157 -161 l-45 -22 0 -79 c0 -78 0
-79 25 -79 51 0 174 69 236 132 62 62 129 184 129 233 0 25 -1 25 -83 25 l-82
0 -23 -49z"/>
<path d="M16230 4731 c0 -11 -4 -23 -10 -26 -5 -3 -16 -21 -25 -39 -17 -36
-81 -76 -121 -76 -23 0 -24 -2 -24 -86 l0 -87 79 6 c95 6 165 39 216 102 48
59 65 97 72 165 l6 60 -97 0 c-88 0 -96 -2 -96 -19z"/>
<path d="M2806 4304 c-79 -27 -159 -85 -203 -146 -39 -55 -89 -154 -98 -195
l-7 -33 81 0 c74 0 80 2 86 23 22 74 136 185 208 203 27 6 27 7 27 90 0 61 -3
84 -12 83 -7 0 -44 -11 -82 -25z"/>
<path d="M3050 4246 l0 -84 45 -22 c60 -29 129 -100 157 -161 l23 -49 88 0 89
0 -7 33 c-19 86 -108 223 -183 280 -41 31 -172 87 -204 87 -4 0 -8 -38 -8 -84z"/>
<path d="M13834 3989 c15 -152 127 -255 288 -266 l78 -6 0 87 0 86 -40 0 c-22
0 -48 4 -58 9 -9 5 -29 14 -43 21 -15 7 -32 24 -39 39 -7 14 -16 34 -21 43 -5
10 -9 25 -9 33 0 12 -15 15 -81 15 l-82 0 7 -61z"/>
<path d="M14530 4031 c0 -11 -4 -23 -10 -26 -5 -3 -16 -21 -25 -39 -17 -36
-81 -76 -121 -76 -23 0 -24 -2 -24 -86 l0 -87 79 6 c95 6 165 39 216 102 48
59 65 97 72 165 l6 60 -97 0 c-88 0 -96 -2 -96 -19z"/>
<path d="M2505 3758 c14 -63 88 -191 143 -245 57 -56 181 -123 227 -123 25 0
25 1 25 79 0 78 0 79 -27 85 -75 18 -191 134 -209 209 -6 27 -7 27 -86 27
l-80 0 7 -32z"/>
<path d="M11840 3633 c1 -82 13 -127 53 -187 44 -66 127 -113 216 -122 l61 -7
0 82 c0 75 -2 81 -20 81 -11 0 -28 4 -38 9 -9 5 -29 14 -43 21 -15 7 -32 24
-39 39 -7 14 -16 34 -21 43 -5 10 -9 36 -9 58 l0 40 -80 0 -80 0 0 -57z"/>
<path d="M5279 1910 c-49 -15 -155 -79 -176 -107 -46 -63 -65 -116 -70 -195
l-6 -78 82 0 81 0 0 34 c0 19 5 38 10 41 6 3 10 15 10 25 0 25 65 90 90 90 10
0 22 5 25 10 4 6 80 10 196 10 l189 0 0 90 0 90 -202 -1 c-112 0 -215 -4 -229
-9z"/>
<path d="M5860 1831 l0 -91 180 0 c162 0 183 -2 217 -21 40 -21 83 -66 83 -85
0 -6 7 -17 15 -24 8 -7 15 -28 15 -46 l0 -34 86 0 87 0 -6 80 c-10 129 -64
212 -177 275 l-55 30 -222 3 -223 3 0 -90z"/>
<path d="M8429 1910 c-49 -15 -155 -79 -176 -107 -46 -63 -65 -116 -70 -195
l-6 -78 82 0 81 0 0 34 c0 19 5 38 10 41 6 3 10 15 10 25 0 25 65 90 90 90 10
0 22 5 25 10 4 6 80 10 196 10 l189 0 0 90 0 90 -202 -1 c-112 0 -215 -4 -229
-9z"/>
<path d="M9010 1831 l0 -91 180 0 c162 0 183 -2 217 -21 40 -21 83 -66 83 -85
0 -6 7 -17 15 -24 8 -7 15 -28 15 -46 l0 -34 86 0 87 0 -6 80 c-10 129 -64
212 -177 275 l-55 30 -222 3 -223 3 0 -90z"/>
<path d="M5043 1296 c6 -80 28 -133 78 -191 l31 -35 637 0 636 1 31 42 c51 69
64 103 71 182 l6 75 -82 0 -81 0 0 -29 c0 -16 -7 -34 -15 -41 -8 -7 -15 -21
-15 -31 0 -24 -65 -89 -90 -89 -10 0 -22 -4 -25 -10 -8 -14 -882 -14 -890 0
-3 6 -17 10 -30 10 -32 0 -95 63 -95 95 0 13 -4 27 -10 30 -5 3 -10 19 -10 36
l0 29 -76 0 -77 0 6 -74z"/>
<path d="M8193 1296 c6 -80 28 -133 78 -191 l31 -35 637 0 636 1 31 42 c51 69
64 103 71 182 l6 75 -82 0 -81 0 0 -29 c0 -16 -7 -34 -15 -41 -8 -7 -15 -21
-15 -31 0 -24 -65 -89 -90 -89 -10 0 -22 -4 -25 -10 -8 -14 -882 -14 -890 0
-3 6 -17 10 -30 10 -32 0 -95 63 -95 95 0 13 -4 27 -10 30 -5 3 -10 19 -10 36
l0 29 -76 0 -77 0 6 -74z"/>
<path d="M100 535 l0 -445 445 0 445 0 0 445 0 445 -445 0 -445 0 0 -445z"/>
<path d="M1080 535 l0 -445 8815 0 8815 0 0 445 0 445 -8815 0 -8815 0 0 -445z"/>
<path d="M18800 535 l0 -445 445 0 445 0 0 445 0 445 -445 0 -445 0 0 -445z"/>
<path d="M19762 15 c-11 -12 -10 -15 3 -15 8 0 15 7 15 15 0 18 -2 18 -18 0z"/>
</g>
</svg>
