<?xml version="1.0" standalone="no"?>
<!DOCTYPE svg PUBLIC "-//W3C//DTD SVG 20010904//EN"
 "http://www.w3.org/TR/2001/REC-SVG-20010904/DTD/svg10.dtd">
<svg version="1.0" xmlns="http://www.w3.org/2000/svg"
 width="1880.000000pt" height="1191.000000pt" viewBox="0 0 1880.000000 1191.000000"
 preserveAspectRatio="xMidYMid meet">

<g transform="translate(0.000000,1191.000000) scale(0.100000,-0.100000)"
fill="#000000" stroke="none">
<path d="M0 11883 c1 -24 2 -25 11 -11 5 10 17 22 27 27 14 9 13 10 -10 11
-24 0 -28 -4 -28 -27z"/>
<path d="M18760 11903 c8 -3 21 -10 28 -16 8 -7 12 -5 12 7 0 11 -8 16 -27 15
-16 0 -22 -3 -13 -6z"/>
<path d="M100 11370 l0 -440 445 0 445 0 0 440 0 440 -445 0 -445 0 0 -440z"/>
<path d="M1090 11370 l0 -440 8315 0 8315 0 0 440 0 440 -8315 0 -8315 0 0
-440z"/>
<path d="M17820 11370 l0 -440 440 0 440 0 0 440 0 440 -440 0 -440 0 0 -440z"/>
<path d="M100 5955 l0 -4875 445 0 445 0 0 4875 0 4875 -445 0 -445 0 0 -4875z"/>
<path d="M17820 5955 l0 -4875 440 0 440 0 0 4875 0 4875 -440 0 -440 0 0
-4875z"/>
<path d="M10570 10085 l0 -205 173 0 172 0 353 -353 352 -352 0 -80 0 -80 -46
-25 c-26 -13 -58 -41 -73 -64 l-26 -40 -1 -237 c-1 -131 -4 -245 -7 -253 -5
-12 -22 -16 -71 -16 -57 0 -65 2 -71 21 -4 12 -8 125 -9 253 -1 222 -2 232
-24 268 -13 20 -40 47 -60 60 -34 21 -48 23 -192 23 -144 0 -158 -2 -192 -23
-20 -13 -47 -40 -60 -60 -22 -35 -23 -49 -26 -238 -4 -235 2 -268 59 -325 37
-37 39 -42 39 -99 l0 -60 -370 0 c-341 0 -370 1 -379 17 -7 14 -3 26 16 52 34
44 53 110 53 183 l0 58 -70 0 -70 0 0 -50 c0 -28 -4 -58 -9 -68 -5 -9 -14 -29
-21 -43 -7 -15 -24 -32 -39 -39 -14 -7 -34 -16 -43 -21 -10 -5 -29 -9 -43 -9
l-25 0 0 -157 c0 -87 -3 -263 -7 -390 l-6 -233 -54 0 -53 0 0 305 0 305 25 0
c25 0 25 1 25 85 l0 85 -40 0 c-22 0 -48 4 -58 9 -9 5 -29 14 -43 21 -15 7
-32 24 -39 39 -7 14 -16 34 -21 43 -5 10 -9 83 -9 163 0 131 2 148 21 178 34
50 92 87 140 87 l41 0 -3 83 -4 84 84 91 83 92 314 0 c307 0 314 0 314 -20 0
-20 7 -20 315 -20 l315 0 0 205 0 205 -315 0 -315 0 0 -60 0 -60 -344 0 c-216
0 -355 -4 -373 -10 -15 -6 -136 -119 -269 -251 l-241 -241 -185 -1 -185 -2
-36 -28 c-20 -15 -49 -44 -64 -64 -26 -34 -28 -43 -32 -155 l-3 -118 -539 0
c-505 0 -540 1 -545 18 -17 56 -57 124 -79 134 -47 21 -44 60 8 94 44 29 87
117 94 193 l6 61 -67 0 -66 0 0 -34 c0 -19 -4 -38 -10 -41 -5 -3 -16 -21 -25
-39 -9 -19 -32 -41 -56 -54 -36 -20 -56 -22 -180 -22 -77 0 -147 4 -157 9 -9
5 -29 14 -43 21 -15 7 -32 24 -39 39 -7 14 -16 34 -21 43 -5 10 -9 31 -9 48 0
29 -1 30 -51 30 l-52 0 5 -64 c7 -77 47 -159 95 -190 50 -33 53 -74 7 -95 -16
-7 -36 -34 -55 -76 l-31 -65 -109 0 -109 0 0 35 0 35 -320 0 -320 0 0 -200 0
-200 320 0 320 0 0 40 0 40 109 0 109 0 7 -32 c13 -63 53 -116 108 -146 52
-27 53 -27 252 -27 198 0 201 0 251 27 55 29 81 61 99 123 l12 40 561 3 c557
2 561 2 567 -18 4 -12 25 -33 48 -48 40 -27 42 -27 225 -28 l184 -2 64 -63 64
-63 0 -333 c0 -326 0 -333 20 -333 18 0 20 -7 20 -56 0 -30 5 -65 12 -77 6
-12 487 -502 1070 -1088 l1058 -1066 0 -97 c0 -53 -4 -96 -9 -96 -5 0 -10
-193 -13 -430 l-4 -430 -73 -74 -73 -73 1 -156 c1 -86 -2 -164 -7 -174 -5 -10
-15 -30 -22 -44 -7 -15 -24 -32 -39 -39 -14 -7 -34 -16 -43 -21 -10 -5 -27 -9
-38 -9 -18 0 -20 -7 -20 -55 l0 -55 38 0 c88 0 188 52 212 110 18 42 63 42 85
0 8 -16 34 -40 58 -52 39 -22 54 -23 227 -23 211 0 230 6 286 87 l29 41 0 227
0 226 -33 42 c-55 69 -84 85 -171 89 -42 2 -86 6 -98 9 l-23 4 0 385 c0 250
-4 385 -10 385 -5 0 -10 10 -10 23 l0 22 466 -1 465 -1 49 -48 48 -47 4 -112
c4 -125 15 -155 79 -219 22 -21 39 -42 39 -46 0 -5 -22 -32 -50 -60 -64 -65
-82 -101 -88 -178 l-5 -63 52 0 c50 0 51 1 51 29 0 46 38 106 82 130 36 19 56
21 189 21 136 0 152 -2 182 -21 44 -29 87 -93 87 -129 l0 -30 65 0 65 0 0 38
c0 75 -27 137 -85 198 -30 31 -55 60 -55 64 0 5 20 29 45 54 64 67 77 116 74
298 l-3 146 38 46 c21 26 46 46 57 46 11 0 43 -12 72 -27 52 -28 52 -28 279
-30 125 -1 237 -4 248 -8 20 -6 20 -13 20 -448 l0 -442 -462 -462 -463 -463
-2500 0 -2500 0 -175 176 c-96 96 -187 182 -202 190 -15 8 -42 14 -61 14 -34
0 -35 1 -41 52 -10 71 -48 133 -105 166 l-46 27 -520 0 -520 0 -47 -28 c-57
-33 -94 -92 -104 -164 l-7 -53 -897 0 -897 0 -7 52 c-10 71 -48 133 -105 166
l-46 27 -520 0 -520 0 -47 -28 c-31 -18 -57 -44 -75 -75 l-28 -47 0 -225 0
-225 27 -46 c18 -30 45 -57 75 -75 l48 -29 520 0 520 0 47 28 c58 35 95 96
104 171 l7 56 897 0 897 0 7 -57 c9 -77 44 -134 103 -169 l48 -29 520 0 520 0
47 28 c47 28 89 85 102 139 3 15 15 30 27 33 18 6 48 -19 178 -148 86 -86 169
-160 184 -166 39 -15 5144 -15 5184 0 42 15 1041 1015 1064 1064 17 36 19 67
19 292 0 246 1 253 21 264 17 9 23 7 35 -9 23 -33 112 -65 197 -70 l77 -5 0
57 0 56 -55 0 c-30 0 -63 4 -73 9 -9 5 -29 14 -43 21 -15 7 -32 24 -39 39 -7
14 -16 34 -21 43 -5 10 -9 65 -9 122 0 125 18 171 82 205 36 19 56 21 189 21
136 0 152 -2 182 -21 44 -29 87 -93 87 -129 l0 -30 65 0 65 0 0 38 c0 75 -27
137 -85 198 -30 31 -55 60 -55 64 0 5 20 29 45 54 56 58 75 118 75 241 0 87 1
92 24 103 22 10 52 -19 497 -469 724 -731 790 -801 778 -821 -8 -15 -24 -18
-84 -18 l-75 0 0 -400 0 -400 395 0 395 0 0 400 0 400 -135 0 -135 0 -15 37
c-8 21 -36 56 -61 79 -41 36 -45 43 -35 62 7 13 25 23 49 27 93 16 203 80 245
144 77 116 103 210 86 305 -22 127 -125 262 -236 313 -50 23 -71 27 -158 27
-87 0 -108 -4 -158 -27 -105 -48 -211 -182 -231 -290 -5 -28 -14 -40 -32 -47
-14 -6 -27 -10 -28 -10 -2 0 -522 521 -1155 1159 -843 849 -1150 1163 -1145
1175 5 14 34 16 239 16 129 0 245 4 259 10 33 12 303 264 311 290 10 31 59 35
103 8 35 -21 47 -23 192 -23 144 0 158 2 192 23 48 30 77 78 85 141 l6 51 156
0 156 0 349 -349 348 -348 -15 -29 c-9 -17 -20 -57 -26 -91 -15 -78 -1 -144
48 -238 45 -87 95 -136 180 -177 61 -29 74 -32 166 -32 92 0 105 3 166 32 85
41 135 90 180 177 49 94 63 160 48 239 -22 127 -125 262 -236 313 -50 23 -71
27 -158 27 -73 0 -111 -5 -140 -17 l-39 -18 -381 381 -381 380 -210 0 -211 0
-6 55 c-7 67 -35 116 -85 147 -34 21 -48 23 -192 23 -144 0 -158 -2 -192 -23
-30 -19 -41 -21 -58 -12 -18 9 -20 20 -20 90 0 70 2 81 20 90 17 9 28 7 58
-12 34 -21 48 -23 192 -23 144 0 158 2 192 23 48 30 77 78 85 141 l6 51 256 0
256 0 249 -249 248 -248 -15 -29 c-9 -17 -20 -57 -26 -91 -15 -78 -1 -144 48
-238 45 -87 95 -136 180 -177 61 -29 74 -32 166 -32 92 0 105 3 166 32 85 41
135 90 180 177 49 94 63 160 48 239 -22 127 -125 262 -236 313 -50 23 -71 27
-158 27 -73 0 -111 -5 -139 -17 l-40 -18 -281 281 -281 280 -311 0 -310 0 -6
56 c-6 62 -43 128 -77 139 -13 4 -20 15 -20 31 l0 24 533 0 c616 0 564 10 540
-104 -18 -87 -6 -153 46 -251 45 -87 95 -136 180 -177 61 -29 74 -32 166 -32
92 0 105 3 166 32 85 41 135 90 180 177 49 94 63 160 48 239 -22 127 -125 262
-236 313 -50 23 -71 27 -158 27 -72 0 -111 -5 -139 -17 l-38 -17 -35 30 -34
30 -904 0 -905 0 -6 25 c-5 19 1 35 22 62 27 35 28 44 32 160 l4 123 -66 0
-66 0 0 -78 c0 -145 -46 -192 -190 -192 -97 0 -145 21 -171 74 -17 35 -19 63
-19 247 l0 207 47 46 c36 36 53 46 80 46 l33 0 0 59 0 58 -52 7 c-29 3 -241 6
-470 6 -411 0 -418 0 -418 -20 0 -19 -7 -20 -200 -20 l-200 0 0 -125 0 -125
-560 0 -560 0 0 35 0 35 -310 0 -310 0 0 -84 c0 -79 -2 -85 -22 -92 -19 -6
-38 10 -130 107 l-107 114 -1 168 0 167 -315 0 -315 0 0 -205z m530 5 l0 -120
-27 0 c-24 0 21 -49 340 -368 l367 -367 0 -163 0 -162 23 0 c15 0 42 -18 70
-46 l47 -46 0 -156 c0 -186 -11 -222 -74 -253 -55 -26 -177 -26 -232 0 -63 31
-74 67 -74 253 l0 156 47 46 c39 39 52 46 85 46 l38 0 0 147 0 148 -382 382
-383 383 -147 0 -148 0 0 120 0 120 225 0 225 0 0 -120z m2570 -395 l0 -315
-195 0 -195 0 0 150 0 150 -645 0 -645 0 0 -40 0 -40 -225 0 -225 0 0 120 0
120 225 0 225 0 0 -45 0 -45 645 0 645 0 0 130 0 130 195 0 195 0 0 -315z
m-460 -245 l0 -150 200 0 c193 0 200 -1 200 -20 0 -20 7 -20 323 -20 l324 0
12 -27 c12 -26 6 -33 -406 -445 l-418 -418 -707 0 c-542 0 -709 3 -714 12 -4
7 -7 112 -5 234 1 138 -2 237 -9 262 -13 51 -59 98 -111 113 l-39 12 0 134 0
134 -95 98 c-91 94 -95 100 -84 125 l12 26 189 0 188 0 0 40 0 40 570 0 570 0
0 -150z m-2110 -110 l0 -120 -225 0 c-218 0 -225 1 -225 20 0 20 -7 20 -368
20 l-367 0 -268 -268 -268 -268 0 -169 0 -169 140 -140 140 -141 7 -390 6
-390 1107 -1107 1106 -1108 72 0 c42 0 73 4 73 10 0 6 108 10 305 10 197 0
305 -4 305 -10 0 -6 49 -10 126 -10 l126 0 79 -77 c44 -42 79 -72 79 -67 0 6
19 20 42 33 39 21 53 22 206 20 l163 -2 175 173 c157 156 174 176 174 207 0
58 24 100 71 122 38 19 62 21 210 21 189 0 218 -9 258 -76 30 -50 30 -221 1
-289 -29 -68 -52 -75 -265 -75 -234 0 -258 10 -274 116 l-6 44 -150 -150 -149
-149 22 -30 c20 -27 22 -42 22 -140 0 -60 -4 -113 -10 -116 -5 -3 -16 -21 -25
-39 -9 -19 -32 -41 -56 -54 -36 -20 -56 -22 -180 -22 -77 0 -147 4 -157 9 -9
5 -29 14 -43 21 -15 7 -32 24 -39 39 -7 14 -16 34 -21 43 -5 10 -9 64 -9 121
l0 103 -73 72 -72 72 -113 0 c-68 0 -112 -4 -112 -10 0 -6 -108 -10 -305 -10
-197 0 -305 4 -305 10 0 6 -35 10 -84 10 -67 0 -88 4 -108 19 l-24 20 2 -501
2 -500 28 -29 c26 -27 33 -29 101 -29 63 0 78 -4 112 -27 74 -53 81 -74 81
-238 0 -80 -4 -153 -9 -163 -5 -9 -14 -29 -21 -43 -7 -15 -24 -32 -39 -39 -14
-7 -34 -16 -43 -21 -23 -12 -213 -12 -236 0 -9 5 -29 14 -43 21 -15 7 -32 24
-39 39 -7 14 -16 34 -21 43 -5 10 -9 83 -9 164 0 134 2 148 22 177 12 18 27
35 32 39 51 32 51 33 28 63 -18 23 -22 41 -22 101 0 59 -3 74 -15 74 -13 0
-15 41 -15 305 0 264 2 305 15 305 13 0 15 25 15 167 l0 168 -1070 1070 -1070
1070 0 103 0 102 -25 0 -25 0 0 308 0 307 -105 105 c-114 114 -100 108 -177
69 -24 -12 -225 -11 -233 1 -3 6 -14 10 -24 10 -24 0 -71 48 -71 71 0 18 -22
19 -645 19 l-645 0 0 -39 c0 -22 -4 -43 -10 -46 -5 -3 -16 -21 -25 -39 -9 -19
-32 -41 -56 -54 -36 -20 -56 -22 -180 -22 -77 0 -147 4 -157 9 -9 5 -29 14
-43 21 -15 7 -32 24 -39 39 -7 14 -16 34 -21 43 -5 10 -9 36 -9 58 l0 40 -195
0 -195 0 0 -40 0 -40 -240 0 -240 0 0 115 0 115 240 0 240 0 0 -40 0 -40 195
0 195 0 0 29 c0 46 38 106 82 130 36 19 56 21 189 21 136 0 152 -2 182 -21 47
-32 87 -93 87 -134 l0 -35 635 0 635 0 0 120 c0 136 10 162 81 213 37 25 45
27 150 27 102 0 113 -2 143 -25 l32 -24 279 279 280 280 382 0 383 0 0 65 0
65 225 0 225 0 0 -120z m5549 -194 l44 -45 36 24 c78 51 198 57 287 15 58 -28
126 -97 155 -157 33 -68 33 -188 0 -256 -29 -61 -97 -129 -158 -158 -68 -33
-188 -33 -256 0 -60 29 -129 97 -157 155 -43 90 -36 209 16 290 l26 38 -33 34
-33 34 -1086 0 -1085 0 -450 -450 -450 -450 -1095 0 -1096 0 -43 -44 -43 -43
2 -317 1 -316 -56 0 -55 0 0 305 c0 252 2 305 14 305 7 0 16 12 19 28 3 16 32
53 70 90 l65 62 1093 0 1094 0 450 450 451 450 1115 0 1115 0 43 -44z m-5476
-282 l47 -46 0 -157 c0 -134 -3 -163 -19 -197 -22 -45 -75 -74 -134 -74 l-37
0 7 -445 6 -445 -56 0 -57 0 0 305 c0 264 2 305 15 305 13 0 15 22 15 139 l0
140 -41 18 c-68 29 -79 66 -79 254 l0 157 47 46 46 46 97 0 97 0 46 -46z
m3500 0 l47 -46 0 -147 0 -146 85 -85 85 -85 0 -384 0 -384 -132 -134 -132
-133 -910 0 -909 0 -58 -55 c-39 -37 -66 -55 -83 -55 -14 0 -26 -4 -26 -10 0
-6 -108 -10 -305 -10 l-305 0 0 55 0 55 305 0 c197 0 305 -4 305 -10 0 -22 26
-7 81 45 l58 55 908 0 908 0 112 112 113 113 0 355 0 356 -65 64 c-36 35 -65
59 -65 52 0 -25 -81 -52 -159 -52 -98 0 -146 21 -172 74 -16 34 -19 63 -19
197 l0 157 47 46 46 46 97 0 97 0 46 -46z m700 0 c46 -45 47 -47 47 -110 l0
-64 343 0 342 0 294 -294 294 -294 36 23 c78 51 199 57 287 15 58 -28 126 -97
155 -157 33 -68 33 -188 0 -256 -29 -61 -97 -129 -158 -158 -68 -33 -188 -33
-256 0 -60 29 -129 97 -157 155 -43 90 -36 209 17 290 l25 39 -283 283 -284
284 -327 0 -328 0 0 -58 c0 -123 -54 -172 -190 -172 -97 0 -145 21 -171 74
-16 34 -19 63 -19 197 l0 157 47 46 46 46 97 0 97 0 46 -46z m-1129 -65 l24
-11 4 -177 c3 -160 5 -179 25 -211 41 -67 68 -75 246 -76 174 -1 197 -9 197
-65 0 -52 -30 -61 -202 -63 -134 -1 -157 -4 -186 -21 -55 -33 -75 -77 -80
-172 l-5 -83 -1178 0 -1179 0 0 110 0 110 801 0 c690 0 805 2 833 15 17 8 175
159 351 335 176 176 321 320 322 320 1 0 13 -5 27 -11z m-4194 -994 l0 -305
-55 0 -55 0 0 305 0 305 55 0 55 0 0 -305z m200 0 l0 -305 -55 0 -55 0 0 305
0 305 55 0 55 0 0 -305z m190 0 l0 -305 -55 0 -55 0 0 305 0 305 55 0 55 0 0
-305z m200 0 l0 -305 -55 0 -55 0 0 305 0 305 55 0 55 0 0 -305z m200 0 l0
-305 -55 0 -55 0 0 305 0 305 55 0 55 0 0 -305z m590 0 l0 -305 -55 0 -55 0 0
305 0 305 55 0 55 0 0 -305z m200 0 l0 -305 -55 0 -55 0 0 305 0 305 55 0 55
0 0 -305z m190 170 l0 -135 1260 0 1260 0 0 89 0 89 47 46 46 46 97 0 97 0 46
-46 47 -46 0 -156 c0 -186 -11 -222 -74 -253 -55 -26 -177 -26 -232 0 -44 21
-74 74 -74 129 l0 32 -1260 0 -1260 0 0 -135 0 -135 -55 0 -55 0 0 305 0 305
55 0 55 0 0 -135z m3553 89 c46 -45 47 -47 47 -110 l0 -64 243 0 242 0 394
-394 394 -394 36 23 c78 51 199 57 287 15 58 -28 126 -97 155 -157 19 -38 24
-65 24 -128 0 -96 -23 -152 -91 -219 -67 -68 -123 -91 -219 -91 -96 0 -152 23
-219 91 -105 105 -125 262 -49 378 l25 39 -383 383 -384 384 -227 0 -228 0 0
-58 c0 -123 -54 -172 -190 -172 -97 0 -145 21 -171 74 -16 34 -19 63 -19 197
l0 157 47 46 46 46 97 0 97 0 46 -46z m-1095 -419 c8 -30 26 -58 53 -85 34
-32 40 -44 35 -65 l-6 -25 -812 0 -812 0 -46 -50 -46 -50 -342 0 -342 0 0
-1065 0 -1064 -24 -13 c-24 -13 -56 19 -1096 1052 -1071 1064 -1072 1065
-1059 1093 12 26 14 27 96 27 49 0 83 4 83 10 0 7 332 10 975 10 l975 0 0 135
0 135 1178 0 1178 0 12 -45z m954 -1672 c698 -698 1268 -1273 1268 -1278 0 -6
97 -107 215 -225 213 -213 215 -215 215 -257 l0 -43 135 0 135 0 0 -315 0
-315 -315 0 -315 0 0 315 0 315 145 0 145 0 0 27 c0 35 -71 108 -1675 1718
l-1250 1255 -490 0 -490 0 -80 -80 -80 -80 -77 0 c-45 0 -78 -4 -78 -10 0 -6
-108 -10 -305 -10 l-305 0 0 55 0 55 305 0 c197 0 305 -4 305 -10 0 -6 28 -10
63 -10 l62 0 80 80 80 80 520 0 520 0 1267 -1267z m-714 504 c599 -599 613
-614 601 -639 l-11 -26 -157 -4 c-146 -3 -159 -5 -206 -30 -41 -21 -55 -35
-72 -75 -12 -26 -25 -58 -28 -70 -5 -18 -14 -23 -38 -23 -27 0 -45 13 -105 73
-39 40 -72 78 -72 85 0 7 7 35 16 62 13 39 15 81 12 202 -3 144 -5 155 -28
186 -14 19 -45 46 -70 60 -43 26 -52 27 -220 30 l-174 4 -207 199 -207 199 -4
123 c-3 100 -8 129 -25 162 -19 36 -20 43 -7 68 l15 27 187 0 187 0 613 -613z
m-1155 522 c17 -12 44 -39 60 -60 25 -37 27 -46 27 -142 l0 -102 232 -232 233
-233 172 0 c194 0 222 -8 262 -76 30 -50 30 -221 1 -289 -29 -68 -52 -75 -265
-75 -264 0 -275 8 -275 218 0 95 4 125 18 154 l19 36 -217 217 c-170 170 -220
214 -226 202 -5 -8 -26 -24 -47 -36 -33 -19 -54 -21 -177 -21 -77 0 -148 4
-158 9 -9 5 -29 14 -43 21 -15 7 -33 23 -40 36 -11 22 -14 23 -29 9 -13 -12
-45 -15 -143 -15 -78 0 -127 -4 -127 -10 0 -6 -108 -10 -305 -10 l-305 0 0 55
0 55 305 0 c197 0 305 -4 305 -10 0 -6 44 -10 112 -10 101 0 114 2 135 22 20
19 23 31 23 104 0 98 23 151 79 182 31 18 55 20 189 21 139 1 155 -1 185 -20z
m-723 -154 l0 -55 -305 0 -305 0 0 55 0 55 305 0 305 0 0 -55z m0 -345 c0 -6
34 -10 82 -10 l83 0 85 -85 85 -85 29 15 c21 11 65 15 177 15 169 0 189 -7
242 -81 25 -37 27 -45 27 -149 0 -60 -4 -112 -10 -115 -5 -3 -16 -21 -25 -39
-9 -19 -32 -41 -56 -54 -36 -20 -56 -22 -180 -22 -77 0 -147 4 -157 9 -9 5
-29 14 -43 21 -15 7 -32 24 -39 39 -7 14 -16 34 -21 43 -14 27 -11 232 3 246
10 10 -5 30 -67 92 l-80 80 -67 0 c-39 0 -68 -4 -68 -10 0 -6 -108 -10 -305
-10 l-305 0 0 55 0 55 305 0 c197 0 305 -4 305 -10z m0 -200 c0 -5 10 -10 22
-10 15 0 50 -27 100 -77 l78 -78 0 -110 0 -110 107 -107 108 -108 655 0 655 0
85 -85 85 -85 87 0 88 0 0 34 c0 51 36 110 82 135 36 19 56 21 189 21 169 0
189 -7 242 -81 25 -37 27 -45 27 -149 0 -60 -4 -112 -10 -115 -5 -3 -16 -21
-25 -39 -9 -19 -32 -41 -56 -54 -36 -20 -56 -22 -180 -22 -77 0 -147 4 -157 9
-77 39 -62 46 -182 -74 l-110 -110 0 -520 0 -520 -512 -512 -513 -513 -2560 0
-2560 0 -190 190 -190 190 -62 0 -63 0 0 -54 c0 -35 -5 -58 -15 -66 -8 -7 -15
-21 -15 -31 0 -24 -65 -89 -90 -89 -10 0 -22 -4 -25 -10 -4 -6 -163 -10 -445
-10 -282 0 -441 4 -445 10 -3 6 -17 10 -30 10 -32 0 -95 63 -95 95 0 13 -4 27
-10 30 -5 3 -10 31 -10 61 l0 54 -985 0 -985 0 0 -54 c0 -35 -5 -58 -15 -66
-8 -7 -15 -21 -15 -31 0 -24 -65 -89 -90 -89 -10 0 -22 -4 -25 -10 -8 -14
-882 -14 -890 0 -3 6 -17 10 -30 10 -32 0 -95 63 -95 95 0 13 -4 27 -10 30
-13 8 -13 292 0 300 5 3 10 15 10 25 0 25 65 90 90 90 10 0 22 5 25 10 4 6
165 10 450 10 430 0 446 -1 482 -21 40 -21 83 -66 83 -85 0 -6 7 -17 15 -24
10 -8 15 -31 15 -66 l0 -54 985 0 985 0 0 54 c0 30 5 58 10 61 6 3 10 15 10
25 0 25 65 90 90 90 10 0 22 5 25 10 4 6 165 10 450 10 430 0 446 -1 482 -21
40 -21 83 -66 83 -85 0 -6 7 -17 15 -24 10 -8 15 -31 15 -66 l0 -54 78 0 77 0
190 -190 190 -190 2530 0 2530 0 493 493 492 492 0 519 0 519 128 131 c126
130 127 131 124 174 l-3 42 -101 0 -101 0 -86 85 -87 85 -654 0 -654 0 -128
128 -128 128 0 110 0 110 -61 59 c-38 37 -63 55 -66 48 -4 -10 -75 -13 -309
-13 l-304 0 0 55 0 55 305 0 c197 0 305 -4 305 -10z m0 -235 l0 -55 -305 0
-305 0 0 55 0 55 305 0 305 0 0 -55z m0 -200 l0 -55 -305 0 -305 0 0 55 0 55
305 0 305 0 0 -55z m235 -195 c56 -54 114 -104 129 -110 17 -6 155 -10 371
-10 l343 0 14 -22 c9 -15 12 -32 7 -48 -4 -14 -7 -38 -8 -55 -1 -24 -26 -55
-143 -172 l-143 -143 -156 0 c-103 0 -171 -5 -202 -14 l-45 -14 -43 44 c-52
53 -86 64 -196 64 l-83 0 0 278 0 279 23 11 c12 6 24 11 26 11 3 1 50 -44 106
-99z m-235 -5 l0 -55 -305 0 -305 0 0 55 0 55 305 0 305 0 0 -55z m0 -200 l0
-55 -305 0 -305 0 0 55 0 55 305 0 305 0 0 -55z m0 -190 l0 -55 -305 0 -305 0
0 55 0 55 305 0 305 0 0 -55z m4374 -135 c60 -28 128 -97 157 -157 19 -38 24
-65 24 -128 0 -96 -23 -152 -91 -219 -67 -68 -123 -91 -219 -91 -96 0 -152 23
-219 91 -110 110 -126 264 -40 390 39 58 107 110 168 130 58 20 163 12 220
-16z"/>
<path d="M16835 9061 c-48 -12 -100 -52 -131 -100 -40 -63 -40 -149 1 -213 87
-138 273 -138 360 0 24 37 29 56 29 107 0 51 -5 70 -29 107 -49 77 -147 120
-230 99z"/>
<path d="M16835 8061 c-48 -12 -100 -52 -131 -100 -40 -63 -40 -149 1 -213 87
-138 273 -138 360 0 24 37 29 56 29 107 0 51 -5 70 -29 107 -49 77 -147 120
-230 99z"/>
<path d="M16835 7061 c-48 -12 -100 -52 -131 -100 -40 -63 -40 -149 1 -213 87
-138 273 -138 360 0 24 37 29 56 29 107 0 51 -5 70 -29 107 -49 77 -147 120
-230 99z"/>
<path d="M16835 4061 c-48 -12 -100 -52 -131 -100 -23 -36 -28 -55 -28 -106 0
-77 35 -138 102 -180 96 -61 223 -28 287 73 24 37 29 56 29 107 0 51 -5 70
-29 107 -49 77 -147 120 -230 99z"/>
<path d="M16835 5061 c-48 -12 -100 -52 -131 -100 -23 -36 -28 -55 -28 -106 0
-77 35 -138 102 -180 96 -61 223 -28 287 73 24 37 29 56 29 107 0 51 -5 70
-29 107 -49 77 -147 120 -230 99z"/>
<path d="M1600 9860 l0 -400 272 0 273 0 610 -609 c523 -522 616 -611 650
-620 26 -7 184 -11 437 -11 l397 0 17 -32 c9 -18 34 -49 55 -71 22 -21 39 -42
39 -46 0 -5 -22 -32 -50 -60 -64 -65 -82 -101 -88 -178 l-5 -63 52 0 c50 0 51
1 51 29 0 46 38 106 82 130 36 19 56 21 189 21 136 0 152 -2 182 -21 44 -29
87 -93 87 -129 l0 -30 65 0 65 0 0 38 c0 75 -27 137 -85 198 -30 31 -55 60
-55 65 0 5 17 25 39 46 21 22 46 53 55 71 l17 32 104 0 105 0 0 -60 0 -60 50
0 50 0 0 35 0 35 240 0 240 0 0 -35 0 -35 50 0 50 0 0 90 c0 53 -4 90 -10 90
-6 0 -10 65 -10 175 l0 175 -320 0 -320 0 0 -30 0 -30 -118 0 -118 0 -22 45
c-17 34 -33 51 -74 72 -53 28 -54 28 -253 28 -198 0 -200 0 -252 -27 -36 -20
-58 -40 -75 -70 l-23 -43 -354 -3 -353 -2 -574 566 -574 566 0 279 0 279 -395
0 -395 0 0 -400z m700 63 l0 -248 597 -597 598 -598 405 0 405 0 23 48 c37 80
72 92 253 92 136 0 152 -2 182 -21 32 -21 87 -90 87 -109 0 -6 77 -10 205 -10
l205 0 0 35 0 35 240 0 240 0 0 -113 0 -114 -187 -6 c-104 -4 -303 -7 -443 -7
-241 0 -256 -1 -265 -19 -6 -11 -18 -34 -28 -53 -10 -20 -35 -44 -58 -56 -36
-20 -56 -22 -180 -22 -77 0 -147 4 -157 9 -9 5 -29 14 -43 21 -26 12 -35 24
-61 88 l-13 32 -428 0 c-353 0 -433 3 -455 14 -15 8 -297 285 -627 615 l-600
601 -262 0 -263 0 0 315 0 315 315 0 315 0 0 -247z"/>
<path d="M1935 10061 c-48 -12 -100 -52 -131 -100 -40 -63 -40 -149 1 -213 87
-138 273 -138 360 0 41 64 41 150 0 214 -49 77 -147 120 -230 99z"/>
<path d="M14630 10061 c0 -52 3 -61 18 -61 10 0 40 -21 65 -46 l47 -46 0 -84
0 -84 66 0 66 0 -4 119 c-4 112 -6 122 -33 161 -38 54 -100 90 -170 97 l-55 6
0 -62z"/>
<path d="M7186 9430 c-100 -31 -176 -136 -176 -247 l0 -43 50 0 c49 0 50 1 50
29 0 16 10 47 21 69 29 54 83 82 160 82 l59 0 0 60 0 60 -67 -1 c-38 0 -81 -5
-97 -9z"/>
<path d="M7440 9381 l0 -61 45 0 c54 0 98 -26 138 -81 15 -22 27 -53 27 -69
l0 -30 65 0 65 0 0 38 c0 66 -27 137 -70 180 -57 60 -93 75 -187 80 l-83 5 0
-62z"/>
<path d="M1860 9260 c-75 -27 -155 -85 -191 -137 -37 -54 -75 -138 -85 -187
l-6 -37 47 3 c47 3 48 4 60 44 27 92 129 189 223 214 l42 11 0 54 c0 64 -4 65
-90 35z"/>
<path d="M2040 9222 c0 -59 0 -60 33 -66 82 -16 200 -138 214 -219 l6 -37 59
0 59 0 -7 38 c-11 64 -73 182 -121 228 -48 47 -144 98 -205 109 l-38 7 0 -60z"/>
<path d="M1935 9061 c-48 -12 -100 -52 -131 -100 -40 -63 -40 -149 1 -213 87
-138 273 -138 360 0 41 64 41 150 0 214 -49 77 -147 120 -230 99z"/>
<path d="M9870 8881 c0 -58 1 -61 25 -61 32 0 96 -46 124 -87 14 -23 21 -48
21 -83 l0 -50 70 0 70 0 0 63 c0 113 -35 190 -110 242 -31 22 -54 28 -119 32
l-81 6 0 -62z"/>
<path d="M1585 8778 c18 -82 59 -162 111 -214 55 -55 150 -106 217 -118 l38
-7 -3 52 -3 52 -46 11 c-90 23 -187 118 -214 210 -12 40 -13 41 -59 44 l-48 3
7 -33z"/>
<path d="M2287 8773 c-14 -81 -132 -203 -214 -219 -32 -6 -33 -8 -33 -61 l0
-54 38 7 c160 30 290 161 327 332 l7 32 -60 0 -59 0 -6 -37z"/>
<path d="M1910 8251 c-193 -42 -347 -269 -309 -452 15 -72 75 -185 123 -232
21 -20 68 -52 105 -69 61 -29 74 -32 166 -31 72 0 111 5 139 17 l39 18 876
-876 c491 -491 888 -880 904 -886 19 -7 472 -10 1416 -10 l1389 0 4 -98 c4
-112 23 -155 86 -194 34 -21 48 -23 192 -23 144 0 158 2 192 23 20 13 47 40
60 60 22 36 23 45 23 262 0 217 -1 226 -23 262 -13 20 -40 47 -60 60 -34 21
-48 23 -193 23 -151 0 -157 -1 -195 -26 -22 -14 -48 -43 -59 -63 l-20 -36
-1360 0 -1360 0 -848 848 -849 849 15 35 c29 70 38 137 26 202 -22 127 -126
264 -235 312 -61 27 -180 39 -244 25z m163 -95 c106 -32 199 -134 219 -243 14
-75 -1 -160 -36 -214 l-24 -36 886 -886 887 -887 1418 0 c1208 0 1417 2 1417
14 0 8 21 35 47 60 l46 46 97 0 97 0 46 -46 47 -46 0 -157 c0 -134 -3 -163
-19 -197 -26 -53 -74 -74 -171 -74 -153 0 -190 44 -190 222 l0 108 -1432 0
-1433 0 -896 896 -896 896 -40 -26 c-92 -61 -233 -57 -329 9 -151 104 -188
294 -84 438 80 112 216 161 343 123z"/>
<path d="M1935 8061 c-48 -12 -100 -52 -131 -100 -40 -63 -40 -149 1 -213 87
-138 273 -138 360 0 41 64 41 150 0 214 -49 77 -147 120 -230 99z"/>
<path d="M7200 8011 c-70 -22 -110 -52 -133 -99 -13 -26 -27 -59 -31 -74 l-6
-28 -110 0 -110 0 0 35 0 35 -320 0 -320 0 0 -200 0 -200 320 0 320 0 0 40 0
40 110 0 c97 0 111 -2 116 -17 19 -58 32 -81 71 -120 24 -25 43 -48 43 -53 0
-4 -22 -31 -50 -59 -64 -65 -82 -101 -88 -178 l-5 -63 52 0 c50 0 51 1 51 29
0 46 38 106 82 130 36 19 56 21 189 21 136 0 152 -2 182 -21 44 -29 87 -93 87
-129 l0 -30 65 0 65 0 0 38 c0 75 -27 137 -85 198 -30 31 -55 60 -55 64 0 5
20 29 45 54 64 67 78 121 73 294 -3 126 -6 141 -31 189 -22 42 -38 58 -80 80
-51 27 -56 28 -237 30 -102 1 -196 -2 -210 -6z m363 -112 c17 -12 44 -39 60
-60 25 -37 27 -45 27 -149 0 -60 -4 -112 -10 -115 -5 -3 -16 -21 -25 -39 -9
-19 -32 -41 -56 -54 -36 -20 -56 -22 -180 -22 -77 0 -147 4 -157 9 -9 5 -29
14 -43 21 -15 7 -32 24 -39 39 -7 14 -16 34 -21 43 -5 10 -9 31 -9 48 l0 30
-195 0 -195 0 0 -40 0 -40 -240 0 -240 0 0 115 0 115 240 0 240 0 0 -40 0 -40
195 0 195 0 0 39 c0 53 35 114 79 139 31 18 55 20 189 21 139 1 155 -1 185
-20z"/>
<path d="M5160 7925 c0 -50 4 -85 10 -85 6 0 10 -67 10 -180 l0 -180 70 0 70
0 0 -64 0 -65 -55 -55 c-77 -76 -99 -129 -99 -236 0 -66 4 -95 21 -132 28 -61
105 -139 174 -174 46 -24 66 -28 134 -28 68 0 88 4 134 28 69 36 146 113 173
173 16 37 21 68 21 133 0 107 -22 160 -98 236 l-55 55 0 65 0 64 75 0 75 0 0
180 c0 113 4 180 10 180 6 0 10 35 10 85 l0 85 -50 0 -50 0 0 -35 0 -35 -240
0 -240 0 0 35 0 35 -50 0 -50 0 0 -85z m580 -240 l0 -115 -80 0 -80 0 0 -139
0 -139 44 -28 c27 -17 57 -49 78 -83 70 -116 32 -258 -90 -332 -49 -30 -65
-34 -122 -34 -90 0 -162 42 -211 123 -30 49 -34 65 -34 122 0 57 4 73 34 122
23 38 49 64 82 84 l49 29 0 138 0 137 -75 0 -75 0 0 115 0 115 240 0 240 0 0
-115z"/>
<path d="M5452 7193 c-13 -2 -38 -19 -56 -38 -57 -56 -57 -133 -1 -190 36 -35
78 -48 126 -38 41 8 94 62 102 103 21 100 -68 184 -171 163z"/>
<path d="M4212 7615 c12 -146 99 -224 259 -233 l79 -5 0 57 0 56 -55 0 c-30 0
-63 4 -73 9 -9 5 -29 14 -43 21 -15 7 -32 24 -39 39 -7 14 -16 34 -21 43 -5
10 -9 31 -9 48 0 29 -1 30 -51 30 l-52 0 5 -65z"/>
<path d="M4850 7646 c0 -19 -4 -38 -10 -41 -5 -3 -16 -21 -25 -39 -19 -40 -83
-76 -136 -76 l-39 0 0 -56 0 -57 79 5 c116 7 185 43 224 119 18 36 31 79 34
118 l6 61 -67 0 -66 0 0 -34z"/>
<path d="M8660 6880 l0 -500 -165 0 c-120 0 -175 -4 -198 -14 -18 -8 -97 -79
-176 -160 l-145 -145 -35 22 c-33 20 -48 22 -191 22 -144 0 -158 -2 -192 -23
-20 -13 -47 -40 -60 -60 -22 -36 -23 -45 -23 -262 0 -217 1 -226 23 -262 43
-68 79 -82 232 -88 140 -5 180 -17 180 -51 0 -35 -41 -47 -181 -50 -152 -4
-188 -18 -231 -87 -22 -36 -23 -45 -23 -262 0 -217 1 -226 23 -262 43 -69 79
-83 228 -86 72 -2 146 0 166 6 28 8 37 6 45 -7 8 -13 0 -28 -40 -73 l-50 -58
-2206 0 -2206 0 -630 -630 -631 -631 -39 18 c-29 12 -67 17 -140 17 -87 0
-108 -4 -158 -27 -156 -71 -268 -275 -236 -428 12 -56 44 -126 86 -190 42 -64
152 -128 245 -144 24 -4 42 -14 49 -27 10 -19 6 -26 -40 -66 -39 -34 -54 -54
-62 -88 -10 -39 -17 -47 -55 -64 -60 -26 -146 -114 -182 -187 -64 -125 -62
-227 7 -358 45 -87 95 -136 180 -177 61 -29 74 -32 166 -32 92 0 105 3 166 32
37 17 84 49 105 69 48 47 108 160 123 232 25 117 -27 248 -141 363 -38 38 -68
74 -68 81 0 7 75 86 166 177 100 99 174 181 185 205 15 33 19 64 19 180 l0
140 568 568 567 567 2145 0 c2075 0 2146 1 2185 19 23 11 97 76 175 155 l135
136 572 0 573 0 0 -135 0 -135 750 0 c703 0 750 -1 759 -17 7 -14 3 -26 -16
-52 -34 -45 -53 -111 -53 -188 l0 -63 55 0 55 0 0 50 c0 60 24 102 81 143 37
25 45 27 150 27 102 0 113 -2 143 -25 l32 -24 62 62 c61 62 62 63 62 120 0 44
-3 57 -15 57 -13 0 -15 41 -15 305 0 197 4 305 10 305 6 0 10 25 10 55 l0 55
-60 0 c-47 0 -60 -3 -60 -15 0 -13 -115 -15 -975 -15 l-975 0 0 -130 0 -130
-534 0 c-492 0 -534 1 -540 17 -5 12 20 44 93 117 54 56 106 116 115 134 l17
32 409 0 410 0 0 1220 0 1220 -390 0 -390 0 0 -500z m680 365 l0 -55 -305 0
-305 0 0 55 0 55 305 0 305 0 0 -55z m0 -200 l0 -55 -305 0 -305 0 0 55 0 55
305 0 305 0 0 -55z m0 -200 l0 -55 -305 0 -305 0 0 55 0 55 305 0 305 0 0 -55z
m0 -190 l0 -55 -305 0 -305 0 0 55 0 55 305 0 305 0 0 -55z m0 -200 l0 -55
-305 0 -305 0 0 55 0 55 305 0 305 0 0 -55z m0 -200 l0 -55 -305 0 c-197 0
-305 4 -305 10 0 6 -69 10 -187 10 l-188 0 -217 -217 -218 -218 0 -89 c0 -160
-42 -206 -189 -206 -98 0 -146 21 -172 74 -16 34 -19 63 -19 197 l0 157 47 46
46 46 97 0 97 0 46 -46 c26 -25 47 -53 47 -62 0 -9 91 75 203 186 l203 202
202 0 c128 0 202 4 202 10 0 6 108 10 305 10 l305 0 0 -55z m0 -190 l0 -55
-305 0 c-197 0 -305 4 -305 10 0 6 -52 10 -137 10 l-138 0 -177 -177 -178
-178 0 -180 0 -180 -91 -91 -91 -91 1 -162 c2 -194 -8 -231 -73 -262 -55 -26
-177 -26 -232 0 -63 31 -74 67 -74 253 l0 156 47 46 46 46 95 0 c76 0 99 -4
114 -17 18 -16 23 -13 103 67 l85 85 0 179 0 180 197 198 197 198 153 0 c95 0
153 4 153 10 0 6 108 10 305 10 l305 0 0 -55z m-670 -295 l0 -180 -24 0 c-14
0 -37 -5 -53 -11 -38 -14 -182 -156 -199 -196 -10 -24 -14 -80 -14 -207 l0
-174 -167 -160 c-160 -152 -169 -159 -190 -145 -18 12 -20 19 -12 46 5 18 9
110 9 206 l0 174 70 72 c38 40 74 84 80 99 5 15 10 97 10 183 l0 155 151 159
151 159 94 0 94 0 0 -180z m670 95 l0 -55 -305 0 -305 0 0 55 0 55 305 0 305
0 0 -55z m0 -200 l0 -55 -305 0 -305 0 0 55 0 55 305 0 305 0 0 -55z m0 -200
l0 -55 -305 0 c-197 0 -305 4 -305 10 0 6 -19 10 -42 10 -38 0 -48 -6 -100
-57 l-58 -57 0 -186 0 -185 -312 -312 -313 -313 -2200 0 -2200 0 -637 -637
-636 -636 24 -36 c59 -90 54 -232 -12 -327 -129 -188 -390 -188 -518 -1 -86
127 -70 281 40 391 105 105 262 125 378 49 l39 -25 646 646 646 646 2200 0
2200 0 292 292 293 293 0 186 0 186 79 76 79 77 56 0 c31 0 56 5 56 10 0 6
108 10 305 10 l305 0 0 -55z m0 -190 l0 -55 -305 0 -305 0 0 55 0 55 305 0
305 0 0 -55z m0 -200 l0 -55 -305 0 -305 0 0 55 0 55 305 0 305 0 0 -55z m320
-560 l0 -305 -55 0 -55 0 0 135 0 135 -633 0 -632 0 -155 -155 -155 -155
-2165 0 -2165 0 -592 -592 -593 -593 0 -160 0 -160 -215 -215 c-204 -203 -216
-217 -213 -249 3 -30 7 -35 44 -46 101 -30 194 -134 215 -238 54 -270 -252
-476 -476 -322 -153 105 -189 294 -85 439 41 57 120 111 183 127 l47 11 0 46
0 46 215 216 215 216 0 159 0 160 613 612 612 613 2165 0 2164 0 156 155 156
155 647 0 647 0 0 135 0 135 55 0 55 0 0 -305z m190 0 l0 -305 -55 0 -55 0 0
305 0 305 55 0 55 0 0 -305z m200 0 l0 -305 -55 0 -55 0 0 305 0 305 55 0 55
0 0 -305z m200 0 l0 -305 -55 0 -55 0 0 305 0 305 55 0 55 0 0 -305z m190 0
l0 -305 -55 0 -55 0 0 305 0 305 55 0 55 0 0 -305z m200 0 l0 -305 -55 0 -55
0 0 305 0 305 55 0 55 0 0 -305z m200 0 l0 -305 -55 0 -55 0 0 305 0 305 55 0
55 0 0 -305z m200 0 l0 -305 -55 0 -55 0 0 305 0 305 55 0 55 0 0 -305z m190
0 l0 -305 -55 0 -55 0 0 305 0 305 55 0 55 0 0 -305z m200 0 l0 -305 -55 0
-55 0 0 305 0 305 55 0 55 0 0 -305z"/>
<path d="M1935 3061 c-48 -12 -100 -52 -131 -100 -40 -63 -40 -149 1 -213 87
-138 273 -138 360 0 41 64 41 150 0 214 -49 77 -147 120 -230 99z"/>
<path d="M1935 2061 c-48 -12 -100 -52 -131 -100 -40 -63 -40 -149 1 -213 87
-138 273 -138 360 0 41 64 41 150 0 214 -49 77 -147 120 -230 99z"/>
<path d="M1910 7251 c-193 -42 -347 -269 -309 -452 15 -72 75 -185 123 -232
21 -20 68 -52 105 -69 61 -29 74 -32 166 -31 72 0 111 5 139 17 l39 18 826
-826 c462 -462 838 -830 854 -836 19 -7 487 -10 1466 -10 l1438 0 6 -51 c8
-63 37 -111 85 -141 34 -21 48 -23 192 -23 144 0 158 2 192 23 20 13 47 40 60
60 22 36 23 45 23 262 0 217 -1 226 -23 262 -13 20 -40 47 -60 60 -34 21 -48
23 -192 23 -144 0 -158 -2 -192 -23 -50 -31 -78 -80 -85 -147 l-6 -55 -1406 0
-1406 0 -798 798 -799 799 15 35 c29 70 38 137 26 202 -22 127 -126 264 -235
312 -61 27 -180 39 -244 25z m163 -95 c106 -32 199 -134 219 -243 14 -75 -1
-160 -36 -214 l-24 -36 836 -836 837 -837 1468 0 1467 0 0 64 c0 63 1 65 47
110 l46 46 97 0 97 0 46 -46 47 -46 0 -157 c0 -134 -3 -163 -19 -197 -26 -53
-74 -74 -171 -74 -136 0 -190 49 -190 172 l0 58 -1482 0 -1483 0 -846 846
-846 846 -40 -26 c-92 -61 -233 -57 -329 9 -151 104 -188 294 -84 438 80 112
216 161 343 123z"/>
<path d="M1935 7061 c-48 -12 -100 -52 -131 -100 -40 -63 -40 -149 1 -213 87
-138 273 -138 360 0 41 64 41 150 0 214 -49 77 -147 120 -230 99z"/>
<path d="M7012 6915 c12 -146 99 -224 259 -233 l79 -5 0 57 0 56 -55 0 c-30 0
-63 4 -73 9 -9 5 -29 14 -43 21 -15 7 -32 24 -39 39 -7 14 -16 34 -21 43 -5
10 -9 31 -9 48 0 29 -1 30 -51 30 l-52 0 5 -65z"/>
<path d="M7650 6946 c0 -19 -4 -38 -10 -41 -5 -3 -16 -21 -25 -39 -19 -40 -83
-76 -136 -76 l-39 0 0 -56 0 -57 79 5 c116 7 185 43 224 119 18 36 31 79 34
118 l6 61 -67 0 -66 0 0 -34z"/>
<path d="M16760 6260 c-75 -27 -155 -85 -191 -137 -37 -54 -75 -138 -85 -187
l-6 -37 47 3 c47 3 48 4 60 44 27 92 129 189 223 214 l42 11 0 54 c0 64 -4 65
-90 35z"/>
<path d="M16940 6222 c0 -59 0 -60 33 -66 82 -16 200 -138 214 -219 l6 -37 59
0 59 0 -7 38 c-11 64 -73 182 -121 228 -48 47 -144 98 -205 109 l-38 7 0 -60z"/>
<path d="M16835 6061 c-48 -12 -100 -52 -131 -100 -40 -63 -40 -149 1 -213 87
-138 273 -138 360 0 24 37 29 56 29 107 0 51 -5 70 -29 107 -49 77 -147 120
-230 99z"/>
<path d="M16485 5778 c18 -82 59 -162 111 -214 55 -55 150 -106 217 -118 l38
-7 -3 52 -3 52 -46 11 c-90 23 -187 118 -214 210 -12 40 -13 41 -59 44 l-48 3
7 -33z"/>
<path d="M17187 5773 c-14 -81 -132 -203 -214 -219 -32 -6 -33 -8 -33 -61 l0
-54 38 7 c160 30 290 161 327 332 l7 32 -60 0 -59 0 -6 -37z"/>
<path d="M1600 4860 l0 -400 395 0 395 0 0 400 0 400 -395 0 -395 0 0 -400z
m700 -5 l0 -315 -315 0 -315 0 0 315 0 315 315 0 315 0 0 -315z"/>
<path d="M1935 5061 c-48 -12 -100 -52 -131 -100 -40 -63 -40 -149 1 -213 87
-138 273 -138 360 0 41 64 41 150 0 214 -49 77 -147 120 -230 99z"/>
<path d="M15250 4746 c0 -19 -4 -38 -10 -41 -5 -3 -16 -21 -25 -39 -19 -40
-83 -76 -136 -76 l-39 0 0 -56 0 -57 79 5 c116 7 185 43 224 119 18 36 31 79
34 118 l6 61 -67 0 -66 0 0 -34z"/>
<path d="M1860 4260 c-75 -27 -155 -85 -191 -137 -37 -54 -75 -138 -85 -187
l-6 -37 47 3 c47 3 48 4 60 44 27 92 129 189 223 214 l42 11 0 54 c0 64 -4 65
-90 35z"/>
<path d="M2040 4222 c0 -59 0 -60 33 -66 82 -16 200 -138 214 -219 l6 -37 59
0 59 0 -7 38 c-11 64 -73 182 -121 228 -48 47 -144 98 -205 109 l-38 7 0 -60z"/>
<path d="M12912 4015 c12 -146 99 -224 259 -233 l79 -5 0 57 0 56 -55 0 c-30
0 -63 4 -73 9 -9 5 -29 14 -43 21 -15 7 -32 24 -39 39 -7 14 -16 34 -21 43 -5
10 -9 31 -9 48 0 29 -1 30 -51 30 l-52 0 5 -65z"/>
<path d="M13550 4046 c0 -19 -4 -38 -10 -41 -5 -3 -16 -21 -25 -39 -19 -40
-83 -76 -136 -76 l-39 0 0 -56 0 -57 79 5 c116 7 185 43 224 119 18 36 31 79
34 118 l6 61 -67 0 -66 0 0 -34z"/>
<path d="M1935 4061 c-48 -12 -100 -52 -131 -100 -40 -63 -40 -149 1 -213 87
-138 273 -138 360 0 41 64 41 150 0 214 -49 77 -147 120 -230 99z"/>
<path d="M1585 3778 c18 -82 59 -162 111 -214 55 -55 150 -106 217 -118 l38
-7 -3 52 -3 52 -46 11 c-90 23 -187 118 -214 210 -12 40 -13 41 -59 44 l-48 3
7 -33z"/>
<path d="M2287 3773 c-14 -81 -132 -203 -214 -219 -32 -6 -33 -8 -33 -61 l0
-54 38 7 c160 30 290 161 327 332 l7 32 -60 0 -59 0 -6 -37z"/>
<path d="M10910 3652 c0 -170 106 -282 267 -282 l43 0 0 55 0 55 -35 0 c-19 0
-43 4 -53 9 -9 5 -29 14 -43 21 -15 7 -32 24 -39 39 -7 14 -16 34 -21 43 -5
10 -9 40 -9 68 l0 50 -55 0 -55 0 0 -58z"/>
<path d="M3640 2046 c-132 -35 -200 -134 -200 -288 l0 -58 55 0 55 0 0 49 c0
28 5 53 10 56 6 3 10 15 10 25 0 25 65 90 90 90 10 0 22 5 25 10 4 6 85 10
211 10 l204 0 0 60 0 60 -207 -1 c-131 0 -225 -5 -253 -13z"/>
<path d="M4190 2001 l0 -61 195 0 c177 0 198 -2 232 -21 40 -21 83 -66 83 -85
0 -6 7 -17 15 -24 10 -8 15 -30 15 -61 l0 -49 60 0 60 0 0 58 c-1 132 -49 221
-148 269 -57 28 -59 28 -284 31 l-228 4 0 -61z"/>
<path d="M6790 2046 c-132 -35 -200 -134 -200 -288 l0 -58 55 0 55 0 0 49 c0
28 5 53 10 56 6 3 10 15 10 25 0 25 65 90 90 90 10 0 22 5 25 10 4 6 85 10
211 10 l204 0 0 60 0 60 -207 -1 c-131 0 -225 -5 -253 -13z"/>
<path d="M7340 2001 l0 -61 195 0 c177 0 198 -2 232 -21 40 -21 83 -66 83 -85
0 -6 7 -17 15 -24 10 -8 15 -30 15 -61 l0 -49 60 0 60 0 0 58 c-1 132 -49 221
-148 269 -57 28 -59 28 -284 31 l-228 4 0 -61z"/>
<path d="M3442 1532 c7 -97 25 -140 82 -195 81 -79 91 -82 349 -85 l227 -4 0
56 0 56 -199 0 c-123 0 -202 4 -206 10 -3 6 -17 10 -30 10 -32 0 -95 63 -95
95 0 13 -4 27 -10 30 -5 3 -10 28 -10 56 l0 49 -56 0 -57 0 5 -78z"/>
<path d="M4730 1561 c0 -31 -5 -53 -15 -61 -8 -7 -15 -21 -15 -31 0 -24 -65
-89 -90 -89 -10 0 -22 -4 -25 -10 -4 -6 -82 -10 -201 -10 l-194 0 0 -56 0 -56
228 4 c257 3 269 6 346 84 58 58 77 102 83 195 l6 79 -62 0 -61 0 0 -49z"/>
<path d="M6592 1532 c7 -97 25 -140 82 -195 81 -79 91 -82 349 -85 l227 -4 0
56 0 56 -199 0 c-123 0 -202 4 -206 10 -3 6 -17 10 -30 10 -32 0 -95 63 -95
95 0 13 -4 27 -10 30 -5 3 -10 28 -10 56 l0 49 -56 0 -57 0 5 -78z"/>
<path d="M7880 1561 c0 -31 -5 -53 -15 -61 -8 -7 -15 -21 -15 -31 0 -24 -65
-89 -90 -89 -10 0 -22 -4 -25 -10 -4 -6 -82 -10 -201 -10 l-194 0 0 -56 0 -56
228 4 c257 3 269 6 346 84 58 58 77 102 83 195 l6 79 -62 0 -61 0 0 -49z"/>
<path d="M100 540 l0 -440 445 0 445 0 0 440 0 440 -445 0 -445 0 0 -440z"/>
<path d="M1090 540 l0 -440 8315 0 8315 0 0 440 0 440 -8315 0 -8315 0 0 -440z"/>
<path d="M17820 540 l0 -440 440 0 440 0 0 440 0 440 -440 0 -440 0 0 -440z"/>
<path d="M0 22 c0 -14 6 -22 16 -22 14 0 15 3 3 18 -7 9 -15 19 -16 21 -2 2
-3 -5 -3 -17z"/>
<path d="M18785 10 c-3 -5 -1 -10 4 -10 6 0 11 5 11 10 0 6 -2 10 -4 10 -3 0
-8 -4 -11 -10z"/>
</g>
</svg>
